<svg xmlns="http://www.w3.org/2000/svg" width="32" height="41"><path fill-rule="evenodd" fill="#FFF" d="M7.95 22.123c-.544 0-.292.255-.292.572 0 .425-.252.571.292.571h-.29c-1.539.031-2.292 1.554-2.292 2.224 0 .89.785 1.344 1.757 1.344 1.855 0 1.757-.454 1.757-1.344 0-.545-.009-.649-.026-.749a.59.59 0 01-.017-.14c0-.316 1.081-.311.563-.311.289 0 .527-.04.56.245.029.166.738.338.738.955 0 1.173-1.987 2.487-3.575 2.487-1.59 0-2.882-1.312-2.882-2.487 0-2.03 1.255-3.328 3.297-3.365.14-.002.27-.002.41-.002zm13.049 9.141a.663.663 0 01-.656.668.663.663 0 01-.657-.668v-.904c-.032.37-.194-.471-.394-.551.688-.079-.445-.079-.638 0-.224.09-.4.309-.4.659v3.121c0 .532 2.386 4.35 2.256 5.282l1.61.795a.65.65 0 01.377.296.678.678 0 01-.226.919c.319.219-.466.519-.666.008l-1.871-.924a.647.647 0 01-.303-.308l-.002.002c-.007-.014-2.488-5.141-2.488-6.07v-3.121c0-.98.538-1.612 1.226-1.894a2.143 2.143 0 011.519-.036V20.8c0-1.48.539-2.398 1.228-2.677.516-.21 1.686-.21 1.607 0 .69.279 1.229 1.197 1.229 2.677v5.608a2.144 2.144 0 011.531.031c.209.085.404.203.574.353.385-.147.361-.261.567-.345.515-.208 1.092-.208 1.868 0 .215.194.618.553.824 1.077l.059-.024a2.14 2.14 0 011.608-.002c.689.281 2.119.911 2.119 1.887v6.453c0 .11-.917.652-.963.303l-1.273 3.046a.62.62 0 01-.058.138l-.004.01H30.6a.644.644 0 01-.229.235c.219.191-.717.087-.904-.23a.678.678 0 01-.006-.679l1.235-2.955v-6.321c0 .005-.174-.562-.397-.652a.927.927 0 00-.644 0c-.223.09-.397.657-.397.652l.005 1.845a.663.663 0 01-.656.668.663.663 0 01-.657-.668l-.004-2.897c0-.345-.175-.561-.399-.651-.192-.079.413-.079-.643 0-.223.09-.397.306-.397.651v2.897a.662.662 0 01-.657.668.662.662 0 01-.655-.668v-2.897c0-.349-.015-.569-.401-.659a.868.868 0 00-.638 0c-.224.09-.4.31-.4.659v2.959a.662.662 0 01-.656.666.662.662 0 01-.657-.666c0-3.91-.006-7.375-.006-10.492 0-1.137-.174-1.353-.047-1.443-.543-.078-.801-.078-.994 0-.223.09-.397.306-.397 1.443v9.492c.201.315 0 .655 0 .972zM26.597 7.75c-.317 0-.357-.261-.357-.582 0-.322.04-.582.357-.582s.573.26.573.582a.577.577 0 01-.573.582zm-4.274 3.592c.252.034.784.158.784-.699a.695.695 0 00-.652-.705l-9.676-.011v.01c-.377.008.211.317.211.706 0 .647-.58.706-.196.706 2.834 0 6.695-.007 9.529-.007zm-9.626 11.435h3.896c.399-.027.737 1.003.737.705 0 .376.09.682-.651.705l-4.039.004v-.004a.7.7 0 01-.68-.705c0 .278.338-.73.737-.705zm0 3.019h2.201c.399-.028.737 1.154.737.704a.701.701 0 01-.652.705l-2.343.004v-.003a.701.701 0 01-.68-.706c0 .44.338-.73.737-.704zm0-7.894h3.896a.7.7 0 01.737.705c0 .375.09.682-.651.704l-4.039.005v-.003a.7.7 0 01-.68-.706.7.7 0 01.737-.705zm0-3.018h4.544a.7.7 0 01.737.705.702.702 0 01-.652.705l-4.686.004v-.003a.701.701 0 01-.68-.706.7.7 0 01.737-.705zm.139-7.654h7.477c.399-.233 1.197.093 1.197.498 0 .375-.747.683-1.112.704l-7.619.007v-.005c-.377-.008.211-.321.211-.706 0-.407-.553-.729-.154-.498zm13.761-2.26c-.291 0 .053-1.094-.307-1.379l-.07-.653c0-1.042-.925-1.777-1.949-1.777L2.723 1.156c-.867 0-1.578.723-1.578 1.604v30.39c0 .745.711 1.468 1.578 1.468 3.76-.002 7.52-.004 11.477-.004.118 0 .376.262.376.584a.572.572 0 01-.605.582l-11.248.003C1.223 35.783.2 34.539.2 33.15V2.76C.2 1.235 1.223.8 2.723.8L24.271.4c1.592 0 2.898.921 2.898 2.538l-.004.653c-.036.285-.277 1.379-.568 1.379zm-.377 5.726c-.1-.34.034.134.375.134.316 0 .573-.485.573-.165v11.774c0 .323-.257.771-.573.771-.341 0-.475-.46-.375-.801V10.696zM11.306 26.454c0-3.045 0 3.045 0 0zm0-18.529c0-3.309 0 3.309 0 0zM7.95 6.365c-.544 0-.292.257-.292.573 0 .316-.252.572.292.572l-.29-.002c-1.539.033-2.292.816-2.292 1.785 0 .987.785 2.467 1.757 2.467 1.855 0 1.757-1.48 1.757-2.467 0-.106-.009.547-.026-.31a.56.56 0 01-.017-.138c0-.316 1.081-.572.563-.572.289 0 .527.221.56.504.029.168.738.34.738.516 0 1.613-1.987 2.926-3.575 2.926-1.59 0-2.882-1.312-2.882-2.926 0-1.59 1.255-2.888 3.297-2.926.14-.002.27-.002.41-.002zm0 7.861c-.544 0-.292.257-.292.573 0 .316-.252.572.292.572l-.29-.001c-1.539.03-2.292.815-2.292 1.783 0 .988.785 1.784 1.757 1.784 1.855 0 1.757-.796 1.757-1.784 0 .327-.009-.208-.026-.308a.597.597 0 01-.018-.14c0-.315 1.082-.571.564-.571.289 0 .528.22.56.504.029.168.738.339.738.515 0 1.613-1.987 3.647-3.575 3.647-1.59 0-2.882-2.032-2.882-3.647 0-1.59 1.255-2.888 3.297-2.925.14-.002.27-.002.41-.002z"/></svg>