<svg xmlns="http://www.w3.org/2000/svg" width="36" height="35"><path fill-rule="evenodd" fill="#FFF" d="M5.531 8.154c.296 0 1.139.244 1.139.544 0 .301-.843.545-1.139.545a.541.541 0 01-.537-.545c0-.3.241-.544.537-.544zm5.2 11.12h10.253c.271 0 .49.224.49.498v3.915h4.311v.006h.345c.271 0 .49.222.49.497v8.992a.494.494 0 01-.49.497H10.731a.494.494 0 01-.491-.497v-13.41c0-.274.22-.498.491-.498zm9.763.995h-4.156v3.418h4.156v-3.418zm-4.961 0H11.22v3.418h4.313v-3.418zm-4.313 4.235v4.136h4.313v-4.136H11.22zm0 4.376v3.805h4.313V28.88H11.22zm5.118 3.805h4.434V28.88h-4.434v3.805zm5.239 0h4.063V28.88h-4.063v3.805zm4.063-4.045v-3.953h-4.063v3.953h4.063zm-4.868 0v-4.136h-4.434v4.136h4.434zm-8.313.952h1.733a.23.23 0 01.227.231v.586a.23.23 0 01-.227.23h-1.733a.23.23 0 01-.227-.23v-.586a.23.23 0 01.227-.231zm5.157 0h1.733a.23.23 0 01.227.231v.586a.23.23 0 01-.227.23h-1.733a.23.23 0 01-.227-.23v-.586a.23.23 0 01.227-.231zm5.157 0h1.733a.23.23 0 01.226.231v.586a.23.23 0 01-.226.23h-1.733a.23.23 0 01-.227-.23v-.586a.23.23 0 01.227-.231zm0-4.376h1.733c.124 0 .226.103.226.23v.874c0-.161-.102-.057-.226-.057h-1.733c-.125 0-.227-.104-.227.057v-.874c0-.127.102-.23.227-.23zm-5.157 0h1.733c.125 0 .227.103.227.23v.874c0-.161-.102-.057-.227-.057h-1.733c-.125 0-.227-.104-.227.057v-.874c0-.127.102-.23.227-.23zm-5.157 0h1.733c.125 0 .227.103.227.23v.874c0-.161-.102-.057-.227-.057h-1.733c-.124 0-.227-.104-.227.057v-.874a.23.23 0 01.227-.23zm0-4.292h1.733c.125 0 .227.346.227.23v.586c0 .127-.102.23-.227.23h-1.733a.23.23 0 01-.227-.23v-.586c0 .116.103-.23.227-.23zm5.157 0h1.733c.125 0 .227.346.227.23v.586c0 .127-.102.23-.227.23h-1.733a.229.229 0 01-.227-.23v-.586c0 .116.102-.23.227-.23zm-8.308-3.312h18.216v15.282c0 1.556.929 2.095 2.062 2.095h.834c.762-.016 1.685-.389 1.685-2.095V15.725l2.085-.001c.917 0 1.809-.905 1.809-2.01 0-.594-.369-1.278-.871-1.779-.331-.33-.722-.628-.868-.685L19.211.138c-.245.572-.892.382-.231.024L7.669 6.62c-.547 1.31.162 1.32.709.847l10.288-6.336 15.852 11.78c0-.041.38.43.38.803 0 .492-.395.893-.708.893l-2.635.001c-.304 0-.055.25-.055.558v17.728c0 .532-.923.971-.96.977h-.954c-.036 0-.962-.438-.962-.977V15.166c0-.308-.246-.558.116-.558H8.759a.554.554 0 00-.551.558v17.728a.97.97 0 01-.962.977h-.444a.97.97 0 01-.962-.977V15.166a.555.555 0 00-.55-.558H1.976c-.484 0-.016-.402-.016-.894 0-.9.929-1.93 1.632-2.538.548-.472-.161-1.319-.709-.846C1.828 11.241.3 12.115.3 13.714c0 1.105.588 2.011 1.676 2.011H4.74v17.169c0 1.476.916 2.081 2.038 2.095h.468c1.133 0 2.062-.539 2.062-2.095V17.612z"/></svg>