<svg xmlns="http://www.w3.org/2000/svg" width="20" height="32"><path fill-rule="evenodd" fill="#FFF" d="M2.964 3.819c-.029 1.018-.04.738.313 2.68.676-.271 1.823-.299 3.631-.118 2.081.415 3.044 1.024 3.914 1.575 1.931 1.221 3.117 1.036 5.342.437 1.446-2.058 1.366-3.189.966-4.574H2.964zm6.761 8.03c.715 0 .58.26.58.579 0 .32.135 1.172-.58 1.172-.32 0-.58-.852-.58-1.172a.58.58 0 01.58-.579zM7.253 9.154a.58.58 0 01.58.578c0 .788-.261.578-.58.578-.32 0-.58.21-.58-.578a.58.58 0 01.58-.578zm5.081 1.481a.58.58 0 010 1.157c-.204 0-.58-.259-.58-.578 0-.319.376-.579.58-.579zm-1.827 6.203c.32 0 1.363 1.142 1.363.578 0 .32-1.043.579-1.363.579a.58.58 0 01-.58-.579c0 .564.26-.578.58-.578zM9.28 18.66c.068 0 .328.259.328.579 0 .319-.26.577-.328.577-.571 0-.831-.258-.831-.577 0-.32.26-.579.831-.579zm-1.651 7.267c.321 0 .58.26.58.578 0 .32-.259 1.335-.58 1.335-.319 0-.129-1.015-.129-1.335 0-.318-.19-.578.129-.578zm2.907 1.843c-.28-.41-.106-.974-.106-1.265 0-.289-.174-.53.106-.572v-.006h2.217c.977 0 .58.26.58.578 0 .32.397 1.335-.58 1.335h-2.217v-.07zm-7.416.34c-.127.035-.212.129-.212.151h14.068a.563.563 0 01-.121-.151c-.004-.009-1.692-2.622-3.316-3.769-1.382-.977-3.044-1.761-3.605-2.014-.561.253-2.224 1.037-3.606 2.014-1.623 1.147-3.158 3.76-3.208 3.769zm-.129-1.123c.697-1.055 1.696-2.633 2.708-3.348 1.782-1.258 4.009-2.216 4.015-2.218a.544.544 0 01.218-.041h.003c.865-.002.885.012.218.041.006.002 2.234.96 4.015 2.218 1.072.758 2.129 3.281 2.829 3.531-.06-1.372-.15-3.014-.285-4.289-.258-2.447-6.29-7.317-6.307-7.331a.576.576 0 01-.004-.892c.288-.267 3.04-2.815 4.806-4.871-2.047.395-2.867 1.113-5.006-.856-.782-.494-1.647-1.042-3.521-1.415-1.894-.378-2.778-.098-3.141.106.186.628.427 1.175.74 1.569 2.241 2.229 5.315 5.482 5.325 5.492a.573.573 0 01.028.812.589.589 0 01-.058.054l.001.001c-.017.014-6.05 4.884-6.308 7.331-.127 1.219.233 2.772-.276 4.106zM19.993 32.6H.9v-2.46c0-.989-.127-1.804.851-1.862.036-1.048.143-3.388.366-5.514.256-2.429 4.699-6.394 6.221-6.994-1.044-.82-3.552-4.083-4.965-5.86-.45-.565-.773-1.368-1.007-2.265a.6.6 0 01-.052-.211c-.549-2.292-.536-2.583-.503-3.717C.804 3.691.11 2.863.11 1.853V.11h19.881v1.743c0 1.008-.817 1.84-1.823 1.864.04 1.426.052 2.994-1.048 5.873-.016-.483.71-.439.44-.397-.638.267-.786.508-.954.717-1.413 1.777-3.92 5.04-4.965 5.86 1.523.6 5.965 4.565 6.222 6.994.997 2.126.331 4.466.366 5.514a1.876 1.876 0 011.764 1.862v2.46z"/></svg>