<svg xmlns="http://www.w3.org/2000/svg" width="30" height="27"><path fill-rule="evenodd" fill="#FFF" d="M17.585 18.999c-1.143 0-2.069-.896-2.069-2v-2c0-1.105.926-2 2.069-2h12.414v6H17.585zm1.552-4.417c-.857 0-1.552.672-1.552 2.238 0 .09.695.762 1.552.762.857 0 1.551-.672 1.551-.762 0-1.566-.694-2.238-1.551-2.238zm-4.655.417v2c0 1.657 1.389 3 3.103 3H27.93v4c0 1.657-1.39 3-3.104 3H3.102c-1.714 0-3.102-1.343-3.102-3v-19c0-1.657 1.388-3.001 3.102-3.001H13.66l-3.024.98h-8.05c-.857 0-1.246.672-1.246 1.5s.389 1.5 1.246 1.5H27.93v6.021H17.585c-1.714 0-3.103 1.343-3.103 3zm-10.345-7H2.68v2h.422v-1h1.035v-1zm0 3H2.68v2h.466l-.044-1 1.035.201v-1.201zm0 3H2.68v2h.444l-.022-1h1.035v-1zm0 3H2.68v2h.444l-.022-1 1.035.201v-1.201zm0 3H2.68v2h.422v-1h1.035v-1zm0 3H2.68v2h.444l-.022-.809h1.035v-1.191zM8.275 4.936L20.43 0l2.328 4.936H8.275zm14.117-2.938h2.434c.906 0 1.714.382 2.281.98h-4.222l-.493-.98z"/></svg>