<svg xmlns="http://www.w3.org/2000/svg" width="85" height="67" fill="#0a6eaa"><path d="M20.856 30.714h9.584c.265 0 .805.534.805 1.188 0 .654-.54 2.008-.805 2.008h-9.584c-.66 0-1.201-1.354-1.201-2.008 0-.654.541-1.188 1.201-1.188zm0-10.064h16.51c.904 0 1.202-.051 1.202.604 0 .653-.298 1.188-1.202 1.188h-16.51c-.66 0-1.201-.535-1.201-1.188 0-.655.541-.604 1.201-.604zm26.104-7.297H20.856c-.66 0-1.201-.533-1.201-1.188 0-.653.541-1.188 1.201-1.188H46.96c-.203 0 .338.535.338 1.188 0 .655-.541 1.188-.338 1.188zm0 4.336H20.856c-.66 0-1.201-.535-1.201-1.189s.541-1.188 1.201-1.188H46.96c-.203 0 .338.534.338 1.188 0 .654-.541 1.189-.338 1.189zm37.289 25.822l-.042.058c-1.945 2.842-5.643 1.375-8.408.826l-1.049-.209-5.121-1.018c.012 1.179.214 2.309.933 3.81l.669-.453c1.56-1.057 3.706-.661 5.269.881l4.003 6.491a1.18 1.18 0 01-.313 1.651 1.21 1.21 0 01-1.671-.309l-4.299-6.49c-.517-.46-.65-.58-1.629-.264l-13.108 8.879c-.303.315-.586.955-.268 1.416l4.396 6.342a1.18 1.18 0 01-.313 1.652c-.547.371-1.098.926-1.67-.309l-4.395-6.342a3.377 3.377 0 01.892-4.72l.413-.28c-.06.577-.114-.023-.163-.18-.433-.582-.98-1.133-1.588-1.663H43.785v7.27h3.074c1.59 0 1.59 1.882 0 1.882H20.94c-2.436 0-2.436-1.882 0-1.882h3.675v-7.27H4.966a4.908 4.908 0 01-3.452-1.417C.629 50.988.8 49.78.8 48.45V15.808c0-1.331-.171-2.538.714-3.413a4.9 4.9 0 013.452-1.418h6.405c.979 0 1.202.532 1.202 1.188 0 .657-.223 1.188-1.202 1.188H4.966c-.682 0-1.302.278-1.752 1.397-.45-.23-.73.384-.73 1.058V48.45c0 .673.28 1.287.73 1.732.45.445 1.07.722 1.752.722h48.55c-.583-.371-1.17-.732-1.741-1.082-1.857-1.137-3.554-2.182-4.625-3.315H5.443a1.194 1.194 0 01-1.202-1.188V19.185c0-1.047.434-1.999 1.131-2.689l.004-.005.013-.011.006-.006c1.515-.679 2.075-1.102 3.565-1.102h2.366c.664 0 1.202.533 1.202 1.188 0 .658-.538 1.189-1.202 1.189H8.96c-1.263 0-1.626.161-1.25.418l-.04.005c-.864.259-1.025.618-1.025 1.013v24.946h7.766V4.754c0-1.209.501-2.311 1.31-3.111l.002-.003.002-.002.002-.001A4.47 4.47 0 0118.872.344H48.81c.499 0 1.614.496 2.423 1.294.024.026.048.051.07.078 1.397.793 1.238 1.865 1.238 3.038v6.223h9.446a4.9 4.9 0 013.448 1.418l.001.002.002-.002a4.788 4.788 0 011.434 3.413v9.777c0 .656-.537 1.188-1.202 1.188.03 0-1.201-.532-1.201-1.188v-9.777c0-.673-.28-1.288-.73-1.058l.002-.02c-.45-1.102-1.071-1.377-1.754-1.377h-9.446v2.019h6.316c1.061 0 2.025.43 2.723 1.12a3.778 3.778 0 011.133 2.693v3.919h-.001l.001.035c0 .657-.539 1.188-1.202 1.188a1.194 1.194 0 01-1.202-1.188h-.001v-3.954a1.452 1.452 0 00-1.451-1.436h-6.316v3.821c0 .144-.141.676-1.202.676-.663 0-1.202-.532-1.202-.676V9.146H16.815v34.985h28.596l-1.768-2.552c-.885-1.278-1.029-2.279-.698-3.715l-1.545-.307a1.207 1.207 0 01-.4-.157l-8.752-3.86c-1.049-1.005-.782-2.547.362-2.714l10.043-1.459c.069-.009.137-.014.204-.012-1.127-.447-1.497-1.215-2.117-2.361a4.097 4.097 0 01-.139-1.55c.052-.516.202-1.026.839-1.487.255-1.247 1.538-2.149 3.361-1.969l12.448 1.223c.204.021.391.092.551.196l10.009 7.143c.451-.197.933.744 1.314 1.757.354.94.569 1.893.692 2.383l11.818 2.69c1.958.048 3 1.381 3.277 2.877a4.457 4.457 0 01-.661 3.254zM41.382 53.28H27.2v7.27h14.182v-7.27zm8.755-46.512V4.754c0-.537-.211-1.026-.554-1.388l-.05-.048c-.373-.369-.887-.597-.723-.597H18.872a2.06 2.06 0 00-1.452.593l-.004.004c.034.367-.601.875-.601 1.436v2.014h33.322zm-4.511 33.467l2.962 4.274c.686.99 3.022 2.084 4.812 3.297 2.242 1.593 5.148 3.373 6.908 5.738.064.087.115.181.151.277l8.113-5.495c-.234-.463-.617-.806-.896-2.031-.244-.665-.427-1.337-.42-1.841.007-.527.022-1.122.042-1.749l-6.529-1.299a.484.484 0 01-.091.14c-.744.7-2.458 3.134-3.782 2.581l-4.217-1.748c-.235-.08-.448-.233.121-.452l-3.579-4.126c-.589-.849-1.41-1.08-1.441-.92-1.005.067-1.303.919-1.573.381.273.108-.304.23-.431.365a1.21 1.21 0 01-.211.255l-.032.045c-.417.619-.153 1.459.093 2.308zm12.32.611l-4.293-.853.213.306 3.237 1.342.843-.795zm8.932-7.705c-.236-.626-.391-.871-.406-.971l-9.759-6.633-12.148-1.196c-.682-.067-1.155.256-1.389 1.119.564-.219-.076 0-.189.224-.023.226-.006.45.403.652-.213.475.185.874.878.942 1.313.129 2.533.197 3.633.258 4.085.227 6.613.368 10.886 3.458h-.001c.404.168.407.421.468.723l.184.911 7.791 1.548c-.093-.316-.029-.657-.351-1.035zm-22.216-3.45l11.219 2.23c-2.581-1.727-4.985-1.161-8.117-2.019a92.676 92.676 0 01-3.102-.211zm29.292 9.278c-.111-.601-.554-1.143-1.396-1.309l-5.217-1.038-24.56-4.881-6.068.881 5.417 2.633 2.192.458a4.962 4.962 0 012.233-1.145c1.627-.358 3.417.113 4.648 1.889l.516.744c.066.002.135.009.203.023l14.703 2.922 5.217 1.037c1.421.283 2.348-.939 2.112-2.214zm3.037-.428l-.712-.141.031.148a4.457 4.457 0 01-.662 3.254l-.041.058-.045.062.712.718c2.34-.111 3.043-3.34.717-4.099zm4.168.828l-.448-.089.031.149c.208 1.122-.031 2.297.058 3.254l-.41.059-.394.062.446.089c.821.667 1.43-.147 1.774-.637l.026-.044c.711-1.075.343-2.559-1.083-2.843zM20.856 3.69c.664 0 1.734.531 1.734 1.188 0 .656-1.07 1.782-1.734 1.782-.663 0-1.201-1.126-1.201-1.782 0-.657.538-1.188 1.201-1.188zm4.809 0c.663 0 1.201.531 1.201 1.188 0 .656-.538 1.782-1.201 1.782-.565 0-1.202-1.126-1.202-1.782 0-.657.637-1.188 1.202-1.188zm4.807 0c.664 0 1.203.531 1.203 1.188 0 .656-.539 1.782-1.203 1.782-.663 0-1.202-1.126-1.202-1.782 0-.657.539-1.188 1.202-1.188zm45.237 51.18c.65-.653 1.072-.027.941.616a1.2 1.2 0 01-1.415.931c-.651-.129-1.073-.755-.941-1.237.13-.805 1.286-1.222 1.415-.31z"/></svg>