<svg xmlns="http://www.w3.org/2000/svg" width="46" height="43" fill="#b9b9b9"><path d="M39.746 4.105h.75c-.036.25-.119.642-.119.88-.076 1.505.76 1.98 1.823 1.991l.648.007v8.221h-1.305V8.209c-1.332-.293-2.332-1.427-1.723-2.793H7.75C6.941 6.845 5.857 8.9 4.451 8.244V26.32c1.418-.053 2.503 1.125 3.319 2.566h17.909v.032c.501.016.608.295.608.64 0 .344-.107.625-.608.639v.002H5.649l.113-.754.017-.142a1.852 1.852 0 00-1.845-2.001h-.11l-.678.028V6.946l.678.026c1.066.238 1.959-.783 1.959-1.856 0-.316-.077-.693-.122-1.011h34.085zm-25.022 5.85h16.547c.015-.002.03-.002.046-.002.015 0 .03 0 .045.002.387 0 1.318.373 1.318.754 0 .4-.924.73-1.317.754l-16.701.005v-.005a.754.754 0 11.062-1.508zm14.387 8.556c.274.037.849-.312.849-.748 0-.411-.312-.433-.705.137l-12.485-.903v.703c-.408-.55-.43-.351-.43.063s.031.755.446.755c3.065 0 9.674-.007 12.325-.007zm2.108-3.543c.274.432 1.461-.312 1.461-.749 0-.409-.924-.73-1.317-.753l-16.701-.013v.011a.756.756 0 00.016 1.511c3.065 0 13.476-.007 16.541-.007zm2.558 3.674c.41-.828 1.168-1.414 2.092-1.533 1.079-.212 2.233.526 2.764 1.449 2.189-.58 4.1 1.632 3.309 3.565 2.308 1.022 2.191 4.837.042 5.727.592.982-.635 2.556-2.235 2.778v2.353h4.948V1.321h-43.4v31.66h31.071v-2.353c-1.663-.216-2.842-1.906-2.191-3.642a2.873 2.873 0 01-1.274-1.207c-.752-1.387-.203-3.095 1.233-3.549-.76-2.43 1.447-4.407 3.641-3.588zm5.972 15.65v8.707l-3.646-4.206-3.735 4.161v-8.662H.7V.1H.644 46.3v34.192h-6.551zm-3.159-5.938c-.69 0-2.01-.427-3.221-1.119l-.002-.004a3.815 3.815 0 01-1.115-2.701c0-1.054.426-2.01 1.115-2.703l.002-.002c1.211-.692 2.531-1.121 3.221-1.121.518 0 2 .429 2.158 1.121l.003.002a3.827 3.827 0 010 5.404l-.003.004c-.158.692-1.64 1.119-2.158 1.119zm1.854 2.148a1.492 1.492 0 01-.094-.033c-.926 1.927-3.478 2.041-4.677.387v8.872l2.446-2.528 2.325 2.483v-9.181zm-3.65-10.838a.659.659 0 01-.107.275c-.203.299.103.375-.905.171-.869-.595-2.146-.41-2.448.684-.099.362-.043.791.24 1.426.298.188.083.766-.408 1.45-1.784-.303-1.707 1.93.075 2.307.042.009.085.023.125.193.041.19.081.41.119.69.293-.565.361-.157.153.137-1.006 1.419.662 2.875 1.886 2.151a.651.651 0 01.93.383c.501 1.609 3.046 2.299 2.87-.076a.652.652 0 011.013-.457c1.491 1.212 3.189-.442 2.192-1.338-.027-.38-.052-.675-.07-.72a.73.73 0 01-.042-.145c-.059-.357.181-.693.536-.385 1.784-.667 1.707-2.901-.074-3.277-.455.247-.672-.633-.398-1.02.292-.412.382-.824.327-1.182-.159-1.015-1.295-1.409-2.199-.978-.039.023-.081.042-.126.947-.343-.781-.71-.973-.818-1.319-.119-.378-.353-.707.235-.923-1.793-.498-2.5-.052-3.106 1.006z"/></svg>