<svg xmlns="http://www.w3.org/2000/svg" width="29" height="33" fill="#b9b9b9"><path d="M23.249 10.46c-.297-.337-.806.49-1.138-.064-.331.3-.359.816.379 1.153-.145.336.365.363.696.063a.824.824 0 00.063-1.152zm-9.379 2.365c0-.674-.239-1.224.426-1.224a1.22 1.22 0 011.208 1.224v5.172h2.746c.44 0 .983.55.983 1.224 0 .674-.543 1.224-.983 1.224h-4.38v-7.62zm.629-7.579c-3.559 0-6.781 1.462-9.113 4.454-1.846 1.734-3.775 4.998-3.775 8.603 0 3.605 1.929 6.87 3.775 9.232 2.332 2.363 5.554 3.825 9.113 3.825 4.081 0 6.782-1.462 9.114-3.825a13.102 13.102 0 003.775-9.232c0-3.605-1.443-6.869-3.775-8.603-2.332-2.992-5.033-4.454-9.114-4.454zM4.247 7.916a14.387 14.387 0 018.327-4.173V2.398h-.094c-1.083 0-1.615-.539-1.615-1.199C10.865.541 11.397.1 12.48.1h4.471c.65 0 1.183.441 1.183 1.099 0 .66-.533 1.199-1.183 1.199h-.526v1.344a14.397 14.397 0 018.327 4.174 14.74 14.74 0 014.247 10.387c0 4.055-1.623 7.997-4.247 10.386-2.624 2.658-6.25 4.303-10.253 4.303s-7.628-1.645-10.252-4.303C1.623 26.3 0 22.358 0 18.303A14.74 14.74 0 014.247 7.916zm15.013-.427c.407.18.592.66.414 1.071-.176.411-.434.599-1.056.421a9.993 9.993 0 00-5.647-.726 9.96 9.96 0 00-5.113 2.474 10.22 10.22 0 00-3.337 7.037c-.142 2.607.698 5.584 3.219 7.367 1.189 2.097 3.708 3.237 6.47 3.38 2.384.143 5.011-.707 7.082-2.587a10.167 10.167 0 002.943-4.702c.528-1.816.551-3.759.057-5.594a.814.814 0 01.562-.998.8.8 0 01.985.571 12.021 12.021 0 01-.065 6.482c-.593 2.039-1.374 3.94-3.407 5.457a11.544 11.544 0 01-8.435 3c-2.984-.167-5.682-1.487-8.058-3.921a11.89 11.89 0 01-2.961-8.545c.867-3.023 1.467-5.983 3.87-8.163a11.558 11.558 0 015.932-2.866 11.585 11.585 0 016.545.842z"/></svg>