<svg xmlns="http://www.w3.org/2000/svg" width="46" height="59" fill="#fff"><path d="M10.199 31.836c.447 0 1.701.367 1.701.824 0 .455-1.254.821-1.701.821h-.041c-1.359.044-2.442 1.174-2.442 2.989 0 .999 1.13 2.145 2.526 2.145 1.399 0 2.526-1.146 2.526-2.145 0-.573-.013-.722-.037-.866a.84.84 0 01-.024-.202c0-.454.993-.823.809-.823.415 0 .757.317.804.728.042.239.065.487.065 1.163 0 1.899-1.86 3.79-4.143 3.79-2.285 0-4.142-1.888-4.142-3.79 0-2.71 1.803-4.578 4.041-4.631.019-.003.039-.003.058-.003zm19.987 13.155c0 .529-.423.96-.943.96a.952.952 0 01-.944-.96v-1.302c-.047-.413-.089-.569-.566-.793-.279-.114.197-.114-.918 0-.322.364-.575.445-.575.949v4.491c0 .766 2.602 6.26 3.244 7.601l2.313 1.873c.363-.664.416-.519.542-.303.27.455.124 1.049-.199 1.323-.429.32-.794.77-.56.011l-3.212-1.329c-.198-.098-.158-.256-.436.178l-.002.02c-.011-.21-3.576-8.037-3.576-9.374v-4.491c0-1.411.772-2.32 1.761-2.726.696-.284 1.476-.302 2.184.561V28.793c0-1.404 1.441-2.311 2.341-1.993.166-1.021.994-1.021 1.735 0 .991-.318 1.766.589 1.766 1.993V38.3c.713-.554 1.498-.538 2.201.17.3-.3.581-.131.825.085.243-.211.519-.376.816.035.74-.831 1.568-.831 2.309 0 .684-.253 1.264.264 1.559 1.018l.086-.034a3.075 3.075 0 012.311-.003c.991.404 1.892 1.311 1.892 2.715v9.287c0 .157-.164.303-.23 1.327l-1.11 3.491c-.21.07-.48.137-.804.2l-.005.014h-.002a.955.955 0 01-.33.339c-.449.273-1.03.746-1.3-.332a.977.977 0 01-.009-.977l1.777-4.253v-9.096c0-.497-.251-.808-.572-.938a1.326 1.326 0 00-.925 0c-.321.13-.05.441-.05.938l.08 2.656c0 .529-1.017.961-1.538.961a.953.953 0 01-.943-.961l-.007-4.169c0-.497-.251-.807-.573-.937a1.291 1.291 0 00-.924 0c-.321.13-.571.44-.571.937v4.169a.953.953 0 01-.944.961.954.954 0 01-.943-.961v-4.169c0-.503-.253-.819-.576-.949-.278-.116-.441-.116-.917 0-.322.13-.575.446-.575.949V45.3c0 .259-.422.689-.943.689-.521 0-.943-.43-.943-.689 0-5.896-.009-10.882-.009-16.507 0-.497.046-.808-.572-.938-.277-.111-.342-.111-.925 0-.321.13-.571.441-.571.938v14.799c.031.848 0 .942 0 1.399zm8.048-33.838a.83.83 0 01-.824-.837c0-.464.368-.837.824-.837.455 0 1.336.373 1.336.837 0 .462-.881.837-1.336.837zm-5.344 5.169c-.438.049.327-.42.327-1.006a1 1 0 00-.937-1.014l-13.91-.017v.015a1.004 1.004 0 00-.977 1.016c0 .556.447 1.016.998 1.016 4.074 0 9.759-.01 14.499-.01zM18.253 32.778h5.6c.574-.039 1.06.432 1.06 1.014 0 .541-.414.982-.937 1.014l-5.805.007v-.007a1.007 1.007 0 01-.978-1.014c0-.585.486-1.051 1.06-1.014zm0 4.343h3.163c.574.699 1.06.432 1.06 1.014 0 .541.144.982-.938 1.014l-3.367.007v-.005a1.01 1.01 0 01-.978-1.016c0-.585.486-.295 1.06-1.014zm0-11.358h5.6c.574-.04 1.06.431 1.06 1.014 0 .54-.414.981-.937 1.013l-5.805.007v-.005a1.007 1.007 0 01-.978-1.015c0-.585.486-1.052 1.06-1.014zm0-4.344h6.531c.574-.039 1.06.432 1.06 1.014 0 .541-.414.982-.938 1.014l-6.735.007v-.005a1.009 1.009 0 01-.978-1.016c0-.584.486-1.051 1.06-1.014zm.2-11.312h10.748c.572.593 1.06.431 1.06 1.014 0 .541-.415.984-.938 1.014l-10.953.009v-.007a1.008 1.008 0 01-.977-1.016c0-.585.486-.401 1.06-1.014zm19.781-4.211a.828.828 0 01-.817-.728l-.011-.94c0-1.499-1.044-2.556-2.516-2.556L3.915 1.664c-1.246 0-2.269 1.04-2.269 2.309V47.51c0 1.267 1.023 2.306 2.269 2.306 5.404-.002 10.809-.004 16.213-.004.455 0 .825.375.825.84 0 .496-.386.851-.113.837-6.146 0-11.534.003-16.925.005C1.758 51.494.2 49.703.2 47.51V3.973C.2 1.778 1.758.12 3.915.12L34.89.5c2.288 0 4.67 1.401 4.67 3.728l-.06.94c-.502.411-.848.728-1.266.728zm-.828 9.496c-.013-.489.335-.881.824-.881.455 0 1.32.376 1.32.837v16.943c0 .464-.865.838-1.32.838-.489 0-.837-.39-.824-.882V15.392zM16.253 38.68c0-4.992 0 3.77 0 0zm0-27.276c0-4.761 0 4.763 0 0zm-6.054-2.243c.447 0 1.701.368 1.701.823 0 .455-1.254.824-1.701.824l-.041-.003c-1.359.047-2.442 1.175-2.442 2.569 0 1.42 1.13 2.566 2.526 2.566 1.399 0 2.526-1.146 2.526-2.566 0-.154-.013.346-.037-.446a.81.81 0 01-.024-.199c0-.455.993-.824.809-.824.415 0 .757.318.804.726.042.242.065.49.065.743 0 2.32-1.86 4.211-4.143 4.211-2.285 0-4.142-1.889-4.142-4.211 0-1.514 1.803-4.156 4.041-4.211.019-.002.039-.002.058-.002zm0 11.312c.447 0 1.701.369 1.701.824 0 .454-1.254.823-1.701.823l-.041-.002c-1.359.044-2.442 1.174-2.442 2.566 0 1.422 1.13 2.568 2.526 2.568 1.399 0 2.526-1.146 2.526-2.568 0-.151-.013-.299-.037-.443-.016-.065-.025-.133-.025.149 0-.804.994-1.172.81-1.172.415 0 .759.317.804.726.042.241.065.487.065.74 0 2.916-1.86 4.213-4.143 4.213-2.285 0-4.142-1.097-4.142-4.213 0-2.288 1.803-4.155 4.041-4.209.019-.002.039-.002.058-.002z"/></svg>