<svg xmlns="http://www.w3.org/2000/svg" width="40" height="26" fill="#fff"><path d="M38.349 20.62c-.441 0-.798-.916-.798-1.358a.799.799 0 111.595 0c0 .442-.357 1.358-.797 1.358zm-6.384 4.484v-4.715h5.018v.978H33.11v.89h3.874v.979H33.11v.89h4.88v.978h-6.025zm-1.015-.119c-.961.245-1.071.535-1.183.735-.11.19-.226-.618-.349-.616h-3.854v-4.715h3.852c.802 0 1.757.454 1.757 1.345 0 .375-.003.765-.429 1.013.426.247.429.626.429 1 0 .649-.515 1.037-.223 1.238zm-1.357-3.618h-2.885v.89h2.885c.254 0 .613-.137.613-.445 0-.306-.353-.445-.613-.445zm.576 2.155c.471-.203-.365-.286-.576-.286h-2.885v.89h2.885c.093 0 .177-.012.252.774.955-.76.458-1.12.324-1.378zM26.786 7.953l-.001.003c-.023.317-.608.712-1.983 1.533-2.202 1.509-5.906 3.22-9.077 5.057-1.761 1.021-1.947.842-1.907-1.712.034-1.549.038-3.174.034-4.865v-.066c.004-1.69 0-3.316-.034-4.523-.04-2.895.146-3.074 1.907-2.054 3.171 1.837 6.875 3.549 9.077 5.057 1.375.821 1.96 1.217 1.983 1.534l.001.003v.033zm-7.957 13.414h-2.316v3.737h-1.144v-3.737h-2.05v-.978h5.51v.978zm-6.556 3.322c-.033.2-.568.551-.882 1.071-.115.19-.231-.656.019-.656H8.67c-.228 0-.448.586-.57-.106a1.212 1.212 0 01-.387-.125c-.353-.184-.193-.5-.763-.895a1.186 1.186 0 01-.038-.297v-3.292H8.57v3.292c0 .207-.333.629-.152 1.219.075-.786.159-.774.252-.774h2.74c-.108 0 .244-.139.244-.445v-3.292h1.145v3.292c0 .301-.118.573-.311.8a1.573 1.573 0 01-.215.208zm-5.743.415H5.25l-1.07-1.412H1.656v1.412H.511v-4.715H4.64c.109 0 .22.008.331.027.696.112 1.426 1.014 1.426 1.396v.623c0 .555-.433 1.025-.912 1.244l1.067 1.303-.022.122zm-1.277-3.292c0-.307-.353-.445-.613-.445H1.656v1.513H4.64c.259 0 .613-.136.613-.445v-.623zm15.373 1.869a.34.34 0 00.038.159c.104.58.606.286.576.286h1.972c.093 0 .177-.012.252.774.181-.59.361-1.012.361-1.219v-3.292h1.145v3.292c0 .097-.013.192-.037.287-.131.506-.57.856-1.042 1.023-.217.689-.449.113-.679.113H21.24c-.13 0-.449.586-.66-.106-.38-.193-1.098-.665-1.098-1.317v-3.292h1.144v3.292z"/></svg>