<svg xmlns="http://www.w3.org/2000/svg" width="69" height="55" fill="#0a6eaa"><path d="M34.499 52.749h-2.941v-1.452c0-.622-.018-1.127-1.126-1.127H9.23c-1.648 0-2.823-1.177-2.823-2.62v-2.809l1.352.224c3.703.62 22.848 4.03 25.491 5.653.251.259.96 1.212 1.249.507.478.705.997-.248 1.248-.507 2.644-1.623 21.789-5.033 25.493-5.653l1.35-.224v2.809a2.623 2.623 0 01-2.615 2.62h-21.41c-.621 0-1.125.505-1.125 1.127v1.452h-2.941zM10.332 3.673c.081-.683.472-.813 1.648-1.889.16-.946.806-1.437 1.664-1.656.834.712 1.645-.008 2.704.024.105.017.204.047.295.089l8.641 3.97c.867.398 1.309 1.05 1.526 1.923l.012.051c.157.663.168 1.402.168 2.26v1.417a53.119 53.119 0 017.509 5.633c3.116-2.802 6.671-5.184 10.005-7.087 3.942-2.151 7.992-3.691 11.863-4.534 3.187-.694 4.263.306 4.612 1.913.841.475.911 1.721.711 2.208 2.186.36 7.296.745 7.297 4.965l.004 25.342c.002 4.905-1.318 5.654-4.149 6.112v3.136c0 2.677-2.195 4.875-4.867 4.875H39.69v.68c0 1.675-.888 2.195-1.895 2.195h-6.593c-1.006 0-1.895-.52-1.895-2.195v-.68H9.23c-2.88 0-5.074-2.198-5.074-4.875v-3.136C1.325 43.956.6 43.207.7 38.302L.11 12.96c.01-4.22 5.012-4.605 7.819-4.965-.02-.487-.014-1.733.261-2.208.075-1.134.684-1.966 2.142-2.114zm16.658 8.854V17.7c.969.021 1.879.733 2.702 1.503 1.459 1.364-.316 2.957-1.375 2.097l-1.327-1.394v3.758c.969.651 1.879 1.606 2.702 2.133 1.459 1.364-.316 2.813-1.375 1.8l-1.327-1.098v.487c0 .468-.162.848-.434 1.141-.28.301-.647.468-1.049.516a2.272 2.272 0 01-.937-.099c-.46-.177-1.129-.584-1.464-1.166-.713-1.243-1.336-2.624-1.869-3.806-.107.178-.431-.958-.613-1.339l-4.364 2.886c-1.461.771-1.74.445-2.683-.315-.322-.514-.317-1.122-.312-1.575v-.11h-.004V6.335c-.37-.093-.738-.18-1.105.425-1.442-.998-1.867-.833-1.94-.497.504.663.031 1.727.031 2.46l-.004 26.403-.001.19c-.001 1.252-.002 1.497 2.56 2.509 6.715 2.653 15.921 4.672 20.692 9.578V17.62c-2.054-1.899-4.243-3.45-6.504-5.093zM13.261 4.17V2.832c-.674-.044-.795.5-.964.975.109.02.219.042.334.067.209.046.879.093.63.296zm2.251-1.869v20.494l4.902-3.078a1.12 1.12 0 011.526.274c.391.538.829 1.508 1.346 2.656.436.969.934 2.074 1.453 3.05V8.445c0-.714-.007-1.321-.1-1.731-.047-.178-.105-.377-.287-.461-1.439-.661-7.833-3.825-8.84-3.952zM61.1 10.25v24.876h-.103c.203 3.399-.757 3.522-3.867 4.796-4.936 1.903-15.322 4.221-18.7 7.693 10.459-2.863 17.184-3.99 22.44-4.869 3.569-.6 5.88.14 5.88-4.444l-.005-25.342c0-2.817-4.365-2.534-5.645-2.71zm-25.596 7.37v29.783c4.771-4.906 13.977-6.925 20.691-9.578 2.563-1.012 2.562-1.257 2.561-2.509l-.001-.19-.005-26.403c0-.733.176-1.797.031-2.46-.072-.336-.497-.501-1.939.497-3.676.117-7.523 1.578-11.266 3.621-3.016 1.921-6.952 4.356-10.072 7.239zm18.409-5.094c1.467 0 1.571 2.142-.156 2.298l-.444.084c-3.579.598-8.456 2.777-10.686 4.486L40.681 21.3c-1.059.86-2.833-.733-1.375-2.097 3.325-2.273 8.079-5.291 12.371-6.242l2.236-.435zm0 13.188c1.467 0 1.571 2.142-.156 2.406l-.444.84c-3.579-.266-8.456 1.912-10.686 3.622l-1.946 1.608c-1.059 1.014-2.833-.435-1.375-1.8 3.325-3.11 8.079-5.29 12.371-6.241l2.236-.435zm0-6.594c1.467 0 1.571 2.142-.156 2.298l-.444.084c-3.579.598-8.456 2.776-10.686 4.485l-1.946 1.61c-1.059 1.013-2.833-.436-1.375-1.8 3.325-3.11 8.079-5.291 12.371-6.242l2.236-.435zM7.996 10.25v24.876H8.1c-.105 3.399.659 3.522 3.885 4.796 4.819 1.903 15.205 4.221 18.583 7.693-10.459-2.863-17.184-3.99-22.44-4.869-3.568-.6-5.88.14-5.879-4.444l.004-25.342c0-2.817 4.364-2.534 5.743-2.71zm7.854 15.464c-2.232 0-2.336 2.142-.609 2.406l.444.84c3.58-.266 8.457 1.912 10.686 3.622l1.946 1.608c1.059 1.014 2.834-.435 1.375-1.8-3.326-3.11-8.079-5.29-12.371-6.241l-1.471-.435z"/></svg>