<svg xmlns="http://www.w3.org/2000/svg" width="59" height="71" fill="#0a6eaa"><path d="M55.875 61.815l-7.706-23.448c-.883-2.687-5.045-.567-3.469 1.329l.749 5.124c.489.75-1.809 1.484-2.298-.005l-2.229-6.485c-.532-2.983-5.045-1.654-4.162 1.032l2.229 6.782c.489 1.489-1.807 2.222-2.297.734l-2.228-5.918c-.539-2.501-1.604-2.771-3.589-1.777-.579.477-.896 1.262-.573 2.243l2.215 6.741c.803 1.568-1.801 2.243-2.284.773L28.5 42.159 24.285 30.84c-.538-1.635-2.385-1.875-3.587-.891-.577.472-.894 1.251-.575 2.22l7.488 22.786 1.579 4.804c.205.624.28 1.801-.776 1.498-.634.202-.424-.14-1.521-.766l-1.579-4.803c-.321-.98-1.046-1.433-1.798-1.484-1.572.776-2.902 1.178-2.364 2.986l2.337 6.937c.442 1.347 4.678 4.19 4.69 4.199 1.299.897.761 2.842-1.382 1.947-.013-.01-4.221-2.81-5.388-4.935H5.267a5.296 5.296 0 01-3.73-1.529.96.96 0 01-.069-.074C.551 62.797.13 61.524.13 60.133V5.997c0-1.428.449-2.728 1.407-3.672l.002-.003.002-.002.001-.001A5.303 5.303 0 015.267.792h36.511c1.449 0 2.769.586 3.728 1.53l.003-.002c.956.942 2.081 2.245 2.081 3.677v28.606c.939.259 2.275 1.203 2.875 3.031l7.708 24.186c.489.75-1.809 1.485-2.298-.005zM23.68 51.837c.736.049-5.184-16.894-5.854-18.935-.671-2.041.053-3.726 1.34-4.78 2.494-1.322 6.339-1.292 7.416 1.984l2.908 7.508c1.007-1.4 3.34-1.822 5.15-.867.636-1.262 1.877-2.132 3.252-2.436V11.594a1.6 1.6 0 00-.481-1.137 1.644 1.644 0 00-1.154-.473H10.788c-.451 0-.86.18-1.156.472a1.596 1.596 0 00-.479 1.138v42.941c0 .442.185.845.481 1.137l-.002.003c.296.29.705.471 1.156.471h7.819c.023-1.327.648-2.428 1.578-3.194a5.016 5.016 0 013.495-1.115zM43.802 4.3l.002-.3-.002-.002a2.878 2.878 0 00-2.024-.827H5.267c-.79 0-1.507.317-2.024.827l-.005.302c-.517.213-.838.918-.838 1.697v54.136c0 .753.301 1.439.789 2.637l.054-.642c.52.512 1.237.83 2.024.83h15.3l-1.457-4.432h-8.322c-1.111 0-2.123.244-2.857-1.172l-.001-.002-.003.002a3.947 3.947 0 01-1.188-2.819V11.594c0-1.096.455-2.092 1.188-2.815l.004-.004c.734-.245 1.746-1.172 2.857-1.172h25.469c1.115 0 2.128.927 2.861 1.172a3.956 3.956 0 011.188 2.819v22.793c.898.262 1.944.797 2.309 2.133.558-1.055 1.265-1.02 2.03-1.722V5.997c0-.776-.323-1.482-.843-1.697z"/></svg>