<svg xmlns="http://www.w3.org/2000/svg" width="87" height="66" fill="#0a6eaa"><path d="M82.351 59.854c1.45 0 2.749-1.195 2.749-2.64V47.203c0-3.996-1.74-7.63-4.384-10.263-1.996-2.634-6.291-4.268-10.303-4.268h-3.846a5.232 5.232 0 00-3.697 1.531 5.192 5.192 0 00-1.537 3.479l-.003 13.055-.001 4.656a.997.997 0 01-.998.995h-6.534c-3.171 0-6.359.01-9.541.01.12.542.182 1.104.182 2.392 0-.057-.081.578-.233 1.184l19.318-.064.002.009a7.785 7.785 0 012.074-7.352c1.551-1.411 3.372-2.284 5.534-2.284 4.317 0 7.827 3.497 7.827 8.507 0-.098-.071.499-.207 1.072l3.598-.008zM66.828 35.989h5.761c1.659 0 3.172.677 4.269 1.769l.002.002.002.002.002.002c1.095 1.093 1.774 2.599 1.774 4.386v5.33c0 .116-.447.94-.997.94H65.18c-.551 0-.998-.824-.998-.94v-8.856c0-.725.298-1.385.776-1.862.022-.021.342-.041.302-.061.24-.442.876-.712 1.568-.712zm5.761 1.988h-5.761c-.164 0-.313.393-.426.158l-.033.033a.643.643 0 00-.192.456v7.916h10.466v-4.39c0-1.247-.455-2.256-1.188-2.986l-.004-.004a4.047 4.047 0 00-2.862-1.183zM43.513 54.399h15.821c0-12.234.012-24.467.014-36.701h-.004c0-1.87-1.537-3.402-3.415-3.402H47.74c.013-.092.024-.183.035-.076.063-.769.092-1.339.081-1.912h8.073c2.979 0 5.411 2.423 5.411 5.39h-.004l-.002 15.235c1.402-1.43 3.204-2.249 5.233-2.249h3.846a16.57 16.57 0 0111.714 4.85c3.005 2.994 4.871 7.124 4.871 11.669v10.011c0 2.542-2.096 4.628-4.647 4.628h-.201l-4.164.003c-1.373 2.47-3.286 4.031-6.853 4.031a7.846 7.846 0 01-6.831-3.989l-20.9.07c-1.262 2.403-3.96 3.919-6.79 3.919-2.814 0-5.37-1.5-6.764-3.776l-6.567.07c-1.396 2.217-3.948 3.706-6.754 3.706-2.777 0-5.327-1.467-6.73-3.256H3.648c-.709 0-1.761-.899-2.491-1.864-1.054-1.393-.557-3.77.032-5.125 1.771-1.027 2.342-1.232 2.459-1.232a5.625 5.625 0 01-1.359-3.662l-.002-33.039c-.364 0 .6-5.39 5.408-5.39h14.866c-.012.573.017 1.143.081 1.912.009-.107.022-.016.035.076H7.695c-1.878 0-3.416 1.532-3.416 3.402l.006 33.039c0 1.009.416 1.928 1.087 2.596 1.271 1.267 2.554 1.066 4.175 1.066l-.007.014h.078a7.84 7.84 0 016.909-4.13c2.91 0 6.203 1.607 6.898 4.116h6.288c1.057-.676.826-1.292 2.077-1.83l-.02-.002c.724-1.411 2.681-2.284 4.842-2.284a7.822 7.822 0 016.901 4.116zM24.17 56.396c.265 1.195.242 2.452-.065 3.944l5.195-.11c-.575-1.388-.596-2.642-.332-3.834H24.17zM8.958 60.74a159.604 159.604 0 00-.258-1.95c0-1.289.062-1.853.183-2.396-1.754.01-3.486-.006-5.235-.006-.04 0 .302.092-.962.556-.554.627-.413 1.989.061 2.616.593.379.659 1.18.901 1.18h5.31zm7.569-8.469c-3.223 0-5.832 2.596-5.832 6.519 0 2.501 2.608 5.098 5.832 5.098 7.668 0 7.675-11.617 0-11.617zm54.606 0c-1.611 0-2.493.65-3.233 1.701-4.609 3.704-1.49 9.916 3.233 9.916 3.222 0 5.831-2.6 5.831-5.098 0-3.924-2.606-6.519-5.831-6.519zm-30.398 1.701a5.822 5.822 0 00-4.123-1.701c-1.512 0-3.069.65-4.124 1.701l-.002-.002-.002.002c-3.609 3.595-1.116 9.916 4.128 9.916 3.223 0 5.831-2.6 5.831-5.098 0-2.314-.653-3.56-1.708-4.818zm-24.211.007a4.175 4.175 0 013.831 2.553c.405 1.065.443 2.094 0 3.158a4.147 4.147 0 01-5.417 2.236 4.128 4.128 0 01-2.562-3.815 4.135 4.135 0 012.585-3.822c.489.611 1.018-.31 1.563-.31zm54.672 0c1.663 0 3.189 1.008 4.074 2.553-.039 1.168.074.999.074 1.579 0 .555-.113 1.089-.074 1.579-.882 1.535-2.384 2.552-4.074 2.552a4.132 4.132 0 01-1.585-.316c-.492-.203-.934-.495-1.306-.216-.804-1.391-.815-2.507-.815-3.599 0-1.696 1.39-3.192 2.143-3.822.489.611 1.018-.31 1.563-.31zm0 1.988c-.296 0-.572.263-.815.154-.804.327-.941 1.117-.941 1.99 0 .868.137 1.654.935 2.829.249-.743.527-.686.821-.686a2.149 2.149 0 002.008-2.924c-.369-.83-1.077-1.363-2.008-1.363zm-34.54-1.988c.557 0 1.093.941 1.586.316 1.555.705 2.561 2.084 2.561 3.816a4.144 4.144 0 01-4.147 4.131c-2.273 0-4.147-1.841-4.147-4.131 0-2.275 1.865-4.132 4.147-4.132zm.821 2.148c-.25.113-.527-.16-.821-.16a2.14 2.14 0 00-2.152 2.144c0 1.19.97 2.143 2.152 2.143a2.148 2.148 0 002.152-2.143c0-.846-.53-1.675-1.331-1.984zm-20.953-.16a2.14 2.14 0 00-2.152 2.144c0 .868.532 1.654 1.33 2.829.25-.743.528-.686.822-.686.872 0 1.659-.53 1.991-1.325a2.175 2.175 0 00.016-1.599c-.371-.836-1.083-1.363-2.007-1.363zm.045-17.732c-1.878 0-3.416 1.531-3.416 3.402l.002 1.343h.004c0 1.135 1.667 2.796 3.693 2.796l11.842-.002c1.506 0 1.506 1.98 0 1.98l-11.842.006c-.375.068-5.689-.638-5.689-4.78l-.002-1.343c.048.243.6-5.39 5.408-5.39l13.974-.003c2.261 0 3.671-1.776 3.695-3.93 0-1.194 1.988-1.194 1.988 0 .002.401.032 1.656-.057 1.181-.355 2.345-1.83 4.737-5.626 4.737l-13.974.003zM35.264 6.13c2.993 0 5.424 2.423 5.424 5.403 0 2.981-2.431 5.403-5.424 5.403-2.993 0-5.424-2.422-5.424-5.403 0-2.979 2.435-5.403 5.424-5.403zm.008-5.266c5.967.077 11.038 4.735 11.038 10.72 0 .402.19.816-.349 1.215-.606 5.333-6.267 12.657-9.991 16.367a1 1 0 01-1.411 0c-3.725-3.71-9.386-11.034-9.991-16.367-.045-.399-.07-.813-.07-1.215C24.498 5.61 29.293.93 35.257.864h.015zm-.008 1.98c-4.86.059-8.77 3.868-8.77 8.74 0 .197.005.363.012 1.246.262 4.018 5.854 10.814 8.758 14.55 3.144-3.647 8.195-10.2 8.716-14.798.19-.337.37-.66.37-.998 0-4.872-4.225-8.681-9.086-8.74zm0 5.274a3.414 3.414 0 100 6.83 3.419 3.419 0 003.429-3.415 3.417 3.417 0 00-3.429-3.415zm1.894 37.659c1.127 0 2.258.006 3.386.006 1.308 0 1.308 1.98 0 1.98l-3.361.002c-1.4-.03-1.3-1.988-.025-1.988zm-4.191 0c.55 0 .998.444.998.994a.997.997 0 01-1.996 0c0-.55.446-.994.998-.994z"/></svg>