<svg xmlns="http://www.w3.org/2000/svg" width="38" height="46" fill="#b9b9b9"><path d="M23.485 30.446c.417.727 3.202 5.385 3.221 5.77l.97 6.968c.063 1.243-.43 2.054-1.131 2.478-.915.9-3.145-.073-3.774-1.867l-.832-5.665-2.652-5.29-1.43-1.702-1.226 7.852c-.002-.499-2.755 4.67-3.158 5.457-.564 1.104-.663 1.544-2.206 1.544-1.723.002-3.01-1.191-2.318-3.577l2.654-5.156 1.87-6.927L.69 30.185c-.375-.003-.56-.316-.53-.7.03-.384.166-.693.541-.69l4.529.051.148-11.906-4.7-.53C.303 16.38.1 15.724.4 15.34c.4-.384-.086-.693.289-.691l13.069.15V13.45c0-2.144 2.192-3.641 3.061-3.641h1.324c1.657 0 2.957 1.383 3.055 3.035.102.789-.021 1.339.038 2.027l16.067.819c.375.03.677-.305.674.08a.688.688 0 01-.685.69l-5.435-.063-.148 12.752 5.606.064a.69.69 0 01.674.701.688.688 0 01-.685.69l-13.819-.158zm-3.554.746c.012.012.024.023.035.036.154.057.454.091.794.158-.257.832 2.458 5.886 2.515 6.328l.848 5.896c.155 1.196 2.292 1.593 2.192-.356l-.961-6.796-3.458-6.03-2.764-.031.799.795zm-3.241-.823l-1.895-.022c-.23.828-1.811 6.492-1.839 7.053.015.412-2.38 4.833-2.753 5.561-.461 1.749 1.181 2.568 2.064.839l3.003-5.876 1.226-7.141s.111-.248.194-.414zm1.147-13.837l-.025.106-.712 3.188 2.069 6.774c.258.177 1.41-.21 1.154-1l-1.879-5.614a.681.681 0 01-.018-.422c.457-1.623 1.298-3.068 1.572-4.658l-.019-1.456c0-1.16-.873-2.183-1.836-2.183h-1.324c-.963 0-1.836 1.023-1.836 2.183l-.021 15.508 7.015.422.148-13.095-1.18-.014-1.217 3.461 1.82 5.437c.79 2.511-2.8 3.668-3.605 1.266l-2.129-5.685c-.041-.797-.045-.923-.019-1.041l.764-3.408.018-.078c.186-.464.571-.526.772-.48.279.063.608.357.488.789zm-2.324-7.778c-2.139-1.463-2.723-4.46-1.295-6.65C15.647.86 18.574.685 20.713.777c2.139 1.463 2.722 4.461 1.987 6.651-2.121 2.19-5.047 2.789-7.187 1.326zm.757-1.162c1.516 1.037 3.591.613 4.603-.939 1.012-1.552.599-3.678-.917-4.714-1.517-1.036-3.592-.613-4.604.939-1.012 1.554-.598 3.678.918 4.714zM6.736 16.11l-.147 12.752 7.015.08.147-12.752-7.015-.08zm23.762.271l-7.015-.08-.148 13.229 7.016-.397.147-12.752z"/></svg>