<svg xmlns="http://www.w3.org/2000/svg" width="54" height="52" fill="#fff"><path d="M8.297 12.115c.444 0 .804.362.804.809 0 .447-.36.809-.804.809a.807.807 0 01-.805-.809c0-.447.36-.809.805-.809zm8.663 16.522h14.516c.406 0 .735.332.735.739v5.817h6.466v.009h.519c.405 0 .734.33.734.738v13.359c0 .407-.329 1.081-.734 1.081H16.96c-1.269 0-1.599-.674-1.599-1.081V29.376c0-.407.33-.739 1.599-.739zm13.782 1.478h-6.235v5.078h6.235v-5.078zm-7.442 0h-6.469v5.078H23.3v-5.078zm-6.469 6.291v5.289H23.3v-5.289h-6.469zm0 6.502v5.653H23.3v-5.653h-6.469zm7.676 5.653h6.652v-5.653h-6.652v5.653zm7.858 0h6.096v-5.653h-6.096v5.653zm6.096-6.866v-5.016h-6.096v5.016h6.096zm-7.302 0v-5.289h-6.652v5.289h6.652zm-12.47 2.271h2.599c.188 0 .341.154.341.342v.871a.342.342 0 01-.341.342h-2.599a.342.342 0 01-.34-.342v-.871c0-.188.153-.342.34-.342zm7.735 0h2.806c-.019 0 .134.154.134.342v.871c0 .188-.153.342-.134.342h-2.806c-.187 0 .416-.154.416-.342v-.871c0-.188-.603-.342-.416-.342zm7.735 0h2.6c.187 0 1.221.154 1.221.342v.871c0 .188-1.034.342-1.221.342h-2.6a.342.342 0 01-.34-.342v-.871c0-.188.153-.342.34-.342zm0-6.502h2.6c.187 0 1.221.154 1.221.342v.871c0 .189-1.034.523-1.221.523h-2.6c-.187 0-.34-.334-.34-.523v-.871c0-.188.153-.342.34-.342zm-7.735 0h2.806c-.019 0 .134.154.134.342v.871c0 .189-.153.523-.134.523h-2.806c-.187 0 .416-.334.416-.523v-.871c0-.188-.603-.342-.416-.342zm-7.735 0h2.599c.188 0 .341.154.341.342v.871c0 .189-.153.523-.341.523h-2.599c-.187 0-.34-.334-.34-.523v-.871c0-.188.153-.342.34-.342zm0-5.594h2.599c.188 0 .341-.629.341-.441v.871a.342.342 0 01-.341.342h-2.599a.342.342 0 01-.34-.342v-.871c0-.188.153.441.34.441zm7.735 0h2.806c-.019 0 .134-.629.134-.441v.871c0 .188-.153.342-.134.342h-2.806c-.187 0 .416-.154.416-.342v-.871c0-.188-.603.441-.416.441zm14.862-7.18H13.963v-1.327h27.323v1.327zm-27.323 1.477h27.323v22.705c0 1.709 1.394 3.112 3.094 3.112h1.25c1.144-.023 2.528-1.38 2.528-3.112V23.363l3.122-.001c1.381 0 2.718-1.182 2.718-2.987 0-1.042-.552-1.897-1.306-2.642-.497-.491-1.082-.934-1.302-1.353L28.817.206c-.367-.101-1.339.564-1.669.036L11.504 9.837c-.821.702.242 1.96 1.064 2.113L28 1.681l23.777 17.502c0-.062.571.638.571 1.192 0 .732-.594 1.328-1.068 1.328l-3.948.001c-.456 0-.825 1.046-.825.83v26.338c0 .791-.641 1.442-.687 1.451h-1.44a1.449 1.449 0 01-1.444-1.451V22.534c0 .216-.369-.83-.825-.83H13.138c-.456 0-.825 1.046-.825.83v26.338c0 .8-.648 1.451-1.444 1.451h-.665a1.45 1.45 0 01-1.444-1.451V22.534c0 .216-.37-.83-.825-.83H2.964c-.726 0-1.32-.597-1.32-1.328 0-.996 2.689-2.867 3.745-3.771.821-.702-.241-1.96-1.064-1.257C2.743 16.702.5 18.1.5 20.376c0 1.804.832 2.987 2.464 2.987H7.11v25.509c0 1.697 1.374 3.092 3.057 3.112h.702c1.7 0 3.094-1.403 3.094-3.112V26.167z"/></svg>