<svg xmlns="http://www.w3.org/2000/svg" width="46" height="35" fill="#b9b9b9"><path d="M33.553 10.88v.001l-1.602 1.738 1.196 1.173 1.817-1.609c.223-.196.507-.286.785-.272h.003l.029.002h.002c.747.021.532.627.725.351l.016.019c.084.094.147.201.19.312l.003.005c.041.106.065.217.071.326l.002.054v2.268h1.579V12.98c0-.295.122-.564.321-.759.197.049.472-.314.774-.314.144 0 .286.03.416.083l.003.001v-.001c.717.41.235.121.33.21v-.001l1.907 1.593 1.088-1.173-1.617-1.756h-.001a.658.658 0 01-.083-.1c-.159-.206-.23-.453-.218-.083v-.02l.002-.28.001-.04c.021-.559.134-.804.332-.99l-.001-.002v-.001a1.099 1.099 0 01.365-.224l-.001-.001c.803.748.189.528.285.438.036-.06.071-.08.108-.08h2.313V7.5H42.38c.4 0-.576-.121-.774-.315a1.06 1.06 0 01-.321-.758c0-.144.031-.284.085-.277l.02-.177c.056-.119.131-.222.217-.307l.001-.001 1.6-1.737-1.088-1.173-1.9 1.586a.595.595 0 01-.101.082 1.1 1.1 0 01-.709.214h-.003l-.028-.002-.004-.001a1.1 1.1 0 01-.699-.326l-.001.001h-.001a.792.792 0 01-.061-.069c-.071-.086-.127.32-.167-.288h-.002a1.048 1.048 0 01-.066-.28.603.603 0 01-.009-.105V1.299H36.79v2.268c0 .296-.123.565-.321.759a1.104 1.104 0 01-1.19.232l-.003-.002v.002c-.122-.05.144-.122-.329-.21h-.001l-1.799-1.593-1.196 1.173 1.64 1.781c.201.219.293.497.278.77v.003l-.002.028v.003c-.022.264-.143.827-.357.71l-.015.013a1.116 1.116 0 01-.323.19l-.006.001.001.001c.423.041-.222.064-.333.07l-.055.002h-2.313v1.98h2.313c1.031 0 .576-.312.774-.118.198.194.321.463.321.759 0 .141-.03.279-.085.408l-.002.004.002.001a1.075 1.075 0 01-.236.346zM15.709 26.389c-3.288 0-5.954-2.613-5.954-5.836 0-3.223 2.666-5.837 5.954-5.837 3.287 0 5.953 2.614 5.953 5.837s-2.666 5.836-5.953 5.836zM8.59 24.215l-4.011 3.779 3.54 3.471L12.2 28.28c.108-.521.577-.497 1.32.54-.34-.599-.277-.424-.277-.251h.001v4.961h4.93v-4.961c0-.403.333-.729.744-.729.206 0 .393.082.528.71l3.853 2.915 3.54-3.471-3.506-3.807c.257-.299.497-.76.055-1.029.142.172.32-.187.498-.187v-.001h5.06v-4.834h-5.06a.737.737 0 01-.745-.729c0-.203.084-.207.221-.519l3.477-3.777-3.54-3.47-3.884 4.139c-.304-.433-.775-.457-1.049-.54-.128-.355-.191-.53-.191-.703h-.001V7.575h-4.93v4.962a.738.738 0 01-.744.729c-.206 0-.393-.082-.527.244L8.119 9.641l-3.54 3.47 4.271 3.808c-.491.299-.516.76-.55 1.029-.412.792-.591.187-.768.187v.001h-5.06v4.834h5.06c.412 0 .744.327.744.73 0 .201-.083 1.13.314.515zM3.2 27.533l2.659-3.104H1.728a.737.737 0 01-.744-.729v-6.293c0-.007.333-.73.744-.73h4.131L3.26 13.6c-.523-.284-.523-.746.01-1.031l4.296-4.45v.002c.278-.273.728-.287 1.023.819l3.167 1.957V6.846c0-.403 1.134-.73.744-.73h6.418c.411 0 .744.327.744.73v4.051L22.8 8.119c1.11-.284.761-.284 1.052 0l4.538 4.45v.001a.72.72 0 01.027 1.003l-2.859 3.104h4.132c.411 0 .744.723.744.73V23.7a.737.737 0 01-.744.729h-4.132l2.833 3.077c.29.285.29.746-.001 1.031l-4.538 4.449h-.001c-.277.272-.727.287-1.023.134l-3.166-2.91v4.05c0 .403-.333.73-.744.73H12.5c.39 0-.744-.327-.744-.73v-4.05l-3.139 2.777a.754.754 0 01-1.051-.001L3.27 28.537l.01-.001c-.53-.272-.545-.714-.08-1.003zm12.509-2.602c2.466 0 4.465-1.96 4.465-4.378s-1.999-4.378-4.465-4.378c-2.466 0-4.465 1.96-4.465 4.378s1.999 4.378 4.465 4.378zm21.87-13.588a3.15 3.15 0 01-2.214-.899 3.032 3.032 0 01-.917-2.17c0-.848.351-1.616.917-2.171.566-.556 1.35-.9 2.214-.9.864 0 1.648.344 2.215.9.566.555.917 1.323.917 2.171 0 .847-.351 1.615-.917 2.17a3.155 3.155 0 01-2.215.899zm-1.415-1.682c.362.489 1.106.574 1.415.574.552 0 1.053-.085 1.415-.574a1.938 1.938 0 000-2.775 2.015 2.015 0 00-1.415-.574c-.309 0-1.053.219-1.415.574a1.938 1.938 0 000 2.775zm-5.608 2.551l1.726-1.874h-2.475c-.363 0-.658.152-.658-.645V6.855c0-.356.295-.646.658-.646h2.475L30.58 4.361h-.001a.637.637 0 010-.913l2.079-2.037.001.001a.667.667 0 01.904-.024L35.474 3.8V.654c0-.356.295.246.658.246h3.128c.13 0 .425-.602.425-.246V3.8l1.885-2.388.001-.001a.667.667 0 01.93 0l2.079 2.037-.002.001c.246.241.259 1.341.025.886l-1.726 1.874h2.474c.364 0 1.549.29 1.549.646v2.838c0 .797-1.185.645-1.549.645h-2.474l1.701 1.848.002.001c.256.251.256.66 0 1.803l-2.079 1.147-.001-.001a.668.668 0 01-.904.024l-1.911-1.693v2.427c0 .356-.295.644-.425.644h-3.128a.651.651 0 01-.658-.644v-2.427l-1.885 1.669-.001.001a.668.668 0 01-.93 0l-2.079-1.147.001-.01c-.245-1.123-.259-1.512-.024-1.768z"/></svg>