<svg xmlns="http://www.w3.org/2000/svg" width="26" height="42" fill="#fff"><path d="M3.88 5.4c-.037.976-.052 1.5.407 3.155.877-.356 2.366-.628 4.813-.155 2.603.545 3.854 1.344 5.73 2.066 1.76 2.214 3.3 1.359 6.37.934.985-3.059.974-4.544.922-6H3.88zm8.778 10.172c1.082 0 .753.342.753.759 0 .42.329 1.569-.753 1.569-.415 0-.753-1.149-.753-1.569 0-.417.338-.759.753-.759zM9.449 12.38c.414 0 .753-.003.753.416a.756.756 0 01-.753.758c-.109 0-.753-.339-.753-.758s.644-.416.753-.416zm7.011 1.6c.001 0 .338.341.338.758 0 .419-.337.759-.338.759-.83 0-1.167-.34-1.167-.759 0-.417.337-.758 1.167-.758zm-2.786 8.135c1.226 0 .753.341.753.759 0 .419.473.759-.753.759a.757.757 0 01-.753-.759c0-.418.338-.759.753-.759zm-1.92 2.39c.415 0 .753.34.753.759 0 .418-.338.946-.753.946-.414 0-.554-.528-.554-.946 0-.419.14-.759.554-.759zM9.938 34.35c.417 0 .753.027.753.444 0 .42-.336.759-.753.759a.755.755 0 01-.753-.759c0-.417.337-.444.753-.444zm3.774 1.194c-.363-.054-.002-.369-.002-.75 0-.38-.361.186.002-.354v-.09h2.878c1.01 0 .753.027.753.444 0 .42.257.759-.753.759h-2.878v-.009zm-9.77 1.354c-.025.046-.135.782-.135 1.072H22.74c-.61-.55-.781-.994-.823-1.072-.006-.011-2.197-3.439-4.306-4.943-1.794-1.281-3.952-2.309-4.681-2.641-.728.332-2.51 1.36-4.682 2.641-2.108 1.504-4.3 4.932-4.306 4.943zm-.027-1.473c.905-.995 2.202-3.452 3.517-4.065 2.313-1.975 5.205-3.231 5.213-3.234.092.754.19.574.282.594h.005c.328-.02.19.16.282-.594.009.003 2.901 1.259 5.214 3.234 1.392.93 2.765 2.892 3.673 4.307.139-1.8-.195-3.954-.37-5.257-.335-3.578-8.167-9.966-8.189-9.984a.76.76 0 01-.006-1.169c.375-.351 3.948-3.693 6.241-6.389-2.846.518-4.12.397-6.5-1.123-1.015.215-2.139-1.366-4.571-1.856-2.46-.495-2.726-.128-4.079.401.241.562.554 1.279.961 2.57 2.302 2.24 6.901 6.415 6.914 6.428.303.285.318 1.222.036 1.066a.726.726 0 01-.076.071l.002.001c-.022.018-7.855 6.406-8.19 9.984-.166 1.229-.282 3.267-.359 5.015zM25.991 42.8H.19v-3.239c0-1.296 1.16-2.366 2.116-2.441.045-1.647.185-4.445.474-7.233.333-3.185 6.101-8.386 8.078-10.081-1.356-1.289-4.612-4.447-6.447-6.516-.584-1.002-1.004-2.054-1.307-2.71.546-.61.316-.703.256-.799-1.036-3.006-1.02-3.387-.978-4.874C1.76 4.873.16 3.786.16 2.462V.16h25.828v2.302c0 1.322-1.06 2.414-2.367 2.445.053 1.871.069 3.927-1.361 7.006-.02.063-.048.427-.083.967.123-.442-.366-.125-.583.41-1.835 2.069-5.09 5.227-6.447 6.516 1.977 1.695 7.745 6.896 8.078 10.081.29 2.788.43 5.586.475 7.233a2.449 2.449 0 012.291 2.441V42.8z"/></svg>