<svg xmlns="http://www.w3.org/2000/svg" width="28" height="35" fill="#b9b9b9"><path d="M26.918 5.782c.203 2.738.536 6.853.535 6.853.127.692-.007 2.025-.253 2.05L14.232 33.244a2.745 2.745 0 01-3.808.701l-8.961-6.184c-1.24-.857-.563-2.574-.7-3.813l12.788-18.56a2.73 2.73 0 011.76-1.135s3.96-1.151 6.59-1.935L18.606 7.1l-2.064-1.424c-.044-.03-.874.524-.874.523-.212.056-.355.127-.485.315L2.395 25.74c-.236-.323-.15.15.193.386l8.961 6.185a.756.756 0 001.051-.192l12.788-18.561c.129-.188.145-.347.122-.565l.177-1.005-2.064-1.424 3.295-4.782zM8.49 20.31c.043-.982.7-1.366 1.017-1.432.488-.066 1.134.682 1.938.733.805.556 1.264 1.074 1.375 1.554.112.48-.073 1.072-.558 1.775-.48.696-.962 1.21-1.448 1.84-.486-.64-1.131-.886-1.936-1.441-.138-.556-1.264-1.072-1.378-1.549-.114-.476.068-1.063.99-1.48zm7.676 3.36l-.89 1.29-4.376-8.761.889-1.29 4.377 8.761zM9.163 20.8c.577.131.527.66-.012.347.081.101.35.31.807.625.463 1.148.755.499.875.537.12.037.747-.01.314-.139.094.17.102-.257.023-.362.74-.104-.346-.315-.804-.63-.456-.315-.748-.491-.873-.527-.126-.037-.236.013-.33.149zm5.64-3.871c.484-.702.97-1.087 1.458-1.152.489-.066 1.135.178 1.939.733 1.3 1.15 1.263 1.074 1.375 2.13.112-.097-.074.495-.415 1.198-.623.696-.61 1.076-1.591 1.138.261.414-1.131-.184-1.935-.74-.806-.555-1.264-1.07-1.379-1.547-.114-.477.069-1.064.548-1.76zm1.115.77c-.09.13-.096.244-.017.721.077-.279.348-.069.811.25.457.316.747.494.871.533.123.041.229-.005.319.477.094-.748.498-.868.023-.973-.079-.105-.346-.315-.804.053-.456-.999-.748-1.174-.873-1.211-.127-.036-.128.014-.33.15zM26.995.297c.743.512.932 1.54.42 2.284l-3.476 5.044c-.512.744-1.539.933-2.282.825-.743-.918-.931-1.946-.419-2.689L24.714.716c.512-.446 1.539-.501 2.281-.419z"/></svg>