<svg xmlns="http://www.w3.org/2000/svg" width="53" height="44" fill="#b9b9b9"><path d="M3.97.12L22.651.9c1.806 0 3.289.586 3.289 2.41v3.225s-.304.658-.652.658a.655.655 0 01-.652-.658l.001-3.225c0-1.174-.825-2.005-1.986-2.005L3.97 1.301c-1.858 0-2.665.815-2.665 1.809v39.58h12.328a2.953 2.953 0 01-.004-.134v-7.713c0-1.188.961-2.157 2.138-2.157h4.062c1.871 0 2.137.969 2.137 2.157v7.713c0 .045-.001.09-.004.134l2.7.002-.025-29.004c-.011-.385.264-.692.651-.692.359 0 .651.295.651.658l.001 30.306c0-.501-.292-.207-.652-.207L.653 44.4C.294 44.4.2 43.711.2 43.347V3.11C.2 1.391 1.394.12 3.97.12zm44.712 28.841l-.002-4.751h-2.44v2.657c0 .311-.466.565-.775.565-.337 0-.622-.301-.889-.48-1.292-.122-1.986-1.759-3.816-2.718l-1.792 1.076c-2.712 1.81-6.333 3.569-8.713 5.307-.807.589-1.726 1.261-1.726 1.939 0 1.167 2.081.903 2.32.903.308 0 .559.253.559.781v7.649c0 .544.439.986.978.986H48.27a.983.983 0 00.977-.986V34.24c0-.528.251-.781.559-.781.772 0 2.504.245 2.504-.903 0-.678-1.055-1.35-2.006-1.939-.357-.261-.791-.51-1.172-.751-.469-.297-.397-.566-.45-.905zm-3.758-3.151l-.017-.161v-1.678c0-.491.394-.151.881-.151h3.13c.485 0 .88-.339.88.151v5.014c.31.192.722.526 1.088.76 1.064.68 2.214 1.437 2.214 2.613 0 1.118-.473 2.23-1.964 2.23h-.77v7.301c0 1.631-.945 2.511-2.096 2.511H32.386c-1.152 0-2.097-.88-2.097-2.511v-7.301h-.866c-1.492 0-1.875-1.112-1.875-2.23 0-1.253 1.03-1.906 2.052-2.653.783-.572 4.317-2.506 4.046-2.487l6.516-4.011c.23-.223 1.548-.243 1.164-.024l3.598 2.627zm-10.089 9.362h2.779c.933 0 1.693.767 1.693 1.709v2.255c0 1.664-.76 1.711-1.693 1.711h-2.779c-.933 0-1.693-.067-1.693-1.711v-2.255c0-.941.76-1.709 1.693-1.709zm8.11 0h2.778c.933 0 1.694.767 1.694 1.709v2.255c0 1.664-.761 1.711-1.694 1.711h-2.778c-.825 0-1.694-.067-1.694-1.711v-2.255c0-.941.869-1.709 1.694-1.709zm2.778 1.042h-2.778a.668.668 0 00-.662.667v2.255c0 .368.3.667.662.667h2.778c1.137 0 .661-.299.661-.667v-2.255a.665.665 0 00-.194-.47c.51-.122-.286-.197-.467-.197zm-10.888 0a.668.668 0 00-.661.667v2.255c0 .368.299.667.661.667h2.779c.363 0 .66-.299.66-.667v-2.255c0-.183-.074-.349.526-.47-1.082.039-3.366-.197-3.965-.197zM25.23 8.836c.359 0 .651.295.651.658a.654.654 0 01-.651.657.655.655 0 01-.652-.657c0-.363.293-.658.652-.658zM20.653 42.69a.995.995 0 00.01-.134v-7.713c0-.462-.376-.643-.834-.643h-4.062c-.459 0-.834.181-.834.643v7.713c0 .045.003.09.01.134h5.71zm-4.529-38.5h4.457c1.177 0 2.137.799 2.137 1.986v6.002c0 1.186-.96 2.156-2.137 2.156h-4.457a2.151 2.151 0 01-2.137-2.156V6.176c0-1.187.96-1.986 2.137-1.986zm4.457 1.144h-4.457a.842.842 0 00-.834.842v6.002c0 .462.376 1.002.834 1.002h4.457c.799 0 .833-.54.833-1.002V6.176c0-.462-.034-.842-.833-.842zM5.333 4.19h4.456c1.176 0 2.137.799 2.137 1.986v6.002c0 1.186-.961 2.156-2.137 2.156H5.333a2.153 2.153 0 01-2.138-2.156V6.176c0-1.187.96-1.986 2.138-1.986zm4.456 1.144H5.333a.843.843 0 00-.835.842v6.002c0 .462.377 1.002.835 1.002h4.456c.458 0 .834-.54.834-1.002V6.176a.842.842 0 00-.834-.842zM5.333 15.968h4.456c1.176 0 2.137.97 2.137 2.157v5.137c0 1.188-.961 2.157-2.137 2.157H5.333a2.151 2.151 0 01-2.138-2.157v-5.137c0-1.187.96-2.157 2.138-2.157zm4.456 1.315H5.333a.843.843 0 00-.835.842v5.137c0 .463.377.842.835.842h4.456a.842.842 0 00.834-.842v-5.137a.842.842 0 00-.834-.842zm6.335-1.315h4.457c1.177 0 2.137.97 2.137 2.157v5.137c0 .594-.241 1.134.182 1.525-1.196.39-1.731.632-2.319.632h-4.457c-1.177 0-2.137-.969-2.137-2.157v-5.137c0-1.187.96-2.157 2.137-2.157zm4.457 1.315h-4.457a.842.842 0 00-.834.842v5.137c0 .463.377.842.834.842h4.457c.799 0 .833-.379.833-.842v-5.137c0-.462-.024-.842-.833-.842zM5.333 26.914h4.456c1.176 0 2.137.969 2.137 2.796v4.498c0 1.188-.961 2.157-2.137 2.157H5.333a2.151 2.151 0 01-2.138-2.157V29.71c0-1.827.96-2.796 2.138-2.796zm4.456 1.315H5.333c-.458 0-.835.379-.835 1.481v4.498c0 .462.377 1.292.835 1.292h4.456c.458 0 .834-.83.834-1.292V29.71c0-1.102-.376-1.481-.834-1.481z"/></svg>