<svg xmlns="http://www.w3.org/2000/svg" width="39" height="36" fill="#fff"><path d="M22.861 25.332c-1.486 0-2.69-1.194-2.69-2.666v-2.667c0-1.473 1.204-2.667 2.69-2.667h16.138v8H22.861zm2.017-5.888a2.008 2.008 0 00-2.017 1.999c0 1.105.903 2 2.017 2a2.008 2.008 0 002.017-2 2.008 2.008 0 00-2.017-1.999zm-6.052.555v2.667c0 2.208 1.807 4 4.035 4h13.448v5.333c0 2.209-1.806 4-4.034 4H4.33c-2.525 0-4.33-1.791-4.33-4V6.665c0-2.209 1.805-4 4.33-4h12.656l-3.159 1.307H3.362a2.008 2.008 0 00-2.018 1.999c0 1.789.903 2 2.018 2h32.947v8.028H22.861c-2.228 0-4.035 1.791-4.035 4zM5.378 10.666H2.689v2.666H4.34v-1.333h1.038v-1.333zm0 4H2.689v2.666H4.9l-.56-1.333 1.038.271v-1.604zm0 3.999H2.689v2.667H4.62l-.28-1.333h1.038v-1.334zm0 4.001H2.689v2.666H4.62l-.28-1.333 1.038.271v-1.604zm0 4H2.689v2.666H4.34v-1.333h1.038v-1.333zm0 4H2.689v2.666H4.62l-.28-1.072h1.038v-1.594zm5.38-24.084L26.56 0l3.026 6.582H10.758zm18.351-3.917h3.166c1.177 0 2.227.509 2.964 1.307H29.75l-.641-1.307z"/></svg>