<svg 
 xmlns="http://www.w3.org/2000/svg"
 xmlns:xlink="http://www.w3.org/1999/xlink"
 width="36px" height="35px">
<path fill-rule="evenodd"  fill="rgb(255, 255, 255)"
 d="M5.531,8.154 C5.827,8.154 6.67,8.398 6.67,8.698 C6.67,8.999 5.827,9.243 5.531,9.243 C5.235,9.243 4.994,8.999 4.994,8.698 C4.994,8.398 5.235,8.154 5.531,8.154 L5.531,8.154 ZM10.731,19.274 L16.770,19.274 L20.575,19.274 L20.984,19.274 C21.255,19.274 21.474,19.498 21.474,19.772 L21.474,23.687 L25.785,23.687 L25.785,23.693 L26.130,23.693 C26.401,23.693 26.620,23.915 26.620,24.190 L26.620,24.262 L26.620,28.375 L26.620,33.182 C26.620,33.456 26.401,33.679 26.130,33.679 L10.731,33.679 C10.460,33.679 10.240,33.456 10.240,33.182 L10.240,19.772 C10.240,19.498 10.460,19.274 10.731,19.274 L10.731,19.274 ZM20.494,20.269 L16.770,20.269 L16.338,20.269 L16.338,23.687 L20.494,23.687 L20.494,20.269 L20.494,20.269 ZM15.533,20.269 L11.220,20.269 L11.220,23.687 L15.533,23.687 L15.533,20.269 L15.533,20.269 ZM11.220,24.504 L11.220,28.64 L15.533,28.64 L15.533,24.504 L11.220,24.504 L11.220,24.504 ZM11.220,28.880 L11.220,32.685 L15.533,32.685 L15.533,28.880 L11.220,28.880 L11.220,28.880 ZM16.338,32.685 L20.772,32.685 L20.772,28.880 L16.338,28.880 L16.338,32.685 L16.338,32.685 ZM21.577,32.685 L25.640,32.685 L25.640,28.880 L21.577,28.880 L21.577,32.685 L21.577,32.685 ZM25.640,28.64 L25.640,24.687 L21.577,24.687 L21.577,28.64 L25.640,28.64 L25.640,28.64 ZM20.772,28.64 L20.772,24.504 L16.338,24.504 L16.338,28.64 L20.772,28.64 L20.772,28.64 ZM12.459,29.592 L14.192,29.592 C14.317,29.592 14.419,29.696 14.419,29.823 L14.419,30.409 C14.419,30.535 14.317,30.639 14.192,30.639 L12.459,30.639 C12.335,30.639 12.232,30.535 12.232,30.409 L12.232,29.823 C12.232,29.696 12.335,29.592 12.459,29.592 L12.459,29.592 ZM17.616,29.592 L19.349,29.592 C19.474,29.592 19.576,29.696 19.576,29.823 L19.576,30.409 C19.576,30.535 19.474,30.639 19.349,30.639 L17.616,30.639 C17.491,30.639 17.389,30.535 17.389,30.409 L17.389,29.823 C17.389,29.696 17.491,29.592 17.616,29.592 L17.616,29.592 ZM22.773,29.592 L24.506,29.592 C24.630,29.592 24.732,29.696 24.732,29.823 L24.732,30.409 C24.732,30.535 24.630,30.639 24.506,30.639 L22.773,30.639 C22.648,30.639 22.546,30.535 22.546,30.409 L22.546,29.823 C22.546,29.696 22.648,29.592 22.773,29.592 L22.773,29.592 ZM22.773,25.216 L24.506,25.216 C24.630,25.216 24.732,25.319 24.732,25.446 L24.732,26.32 C24.732,26.159 24.630,26.263 24.506,26.263 L22.773,26.263 C22.648,26.263 22.546,26.159 22.546,26.32 L22.546,25.446 C22.546,25.319 22.648,25.216 22.773,25.216 L22.773,25.216 ZM17.616,25.216 L19.349,25.216 C19.474,25.216 19.576,25.319 19.576,25.446 L19.576,26.32 C19.576,26.159 19.474,26.263 19.349,26.263 L17.616,26.263 C17.491,26.263 17.389,26.159 17.389,26.32 L17.389,25.446 C17.389,25.319 17.491,25.216 17.616,25.216 L17.616,25.216 ZM12.459,25.216 L14.192,25.216 C14.317,25.216 14.419,25.319 14.419,25.446 L14.419,26.32 C14.419,26.159 14.317,26.263 14.192,26.263 L12.459,26.263 C12.335,26.263 12.232,26.159 12.232,26.32 L12.232,25.446 C12.232,25.319 12.335,25.216 12.459,25.216 L12.459,25.216 ZM12.459,20.924 L14.192,20.924 C14.317,20.924 14.419,21.27 14.419,21.154 L14.419,21.740 C14.419,21.867 14.317,21.970 14.192,21.970 L12.459,21.970 C12.335,21.970 12.232,21.867 12.232,21.740 L12.232,21.154 C12.232,21.27 12.335,20.924 12.459,20.924 L12.459,20.924 ZM17.616,20.924 L19.349,20.924 C19.474,20.924 19.576,21.27 19.576,21.154 L19.576,21.740 C19.576,21.867 19.474,21.970 19.349,21.970 L17.616,21.970 C17.491,21.970 17.389,21.867 17.389,21.740 L17.389,21.154 C17.389,21.27 17.491,20.924 17.616,20.924 L17.616,20.924 ZM9.308,17.612 L27.524,17.612 L27.524,32.894 C27.524,34.45 28.453,34.989 29.586,34.989 L30.42,34.989 C31.182,34.973 32.105,34.60 32.105,32.894 L32.105,15.725 L34.19,15.724 C35.107,15.724 35.999,14.819 35.999,13.714 C35.999,13.12 35.630,12.436 35.128,11.935 C34.797,11.605 34.406,11.307 34.26,11.25 L19.211,0.138 C18.966,0.71 18.319,0.52 18.98,0.162 L7.669,6.620 C7.122,7.93 7.831,7.940 8.378,7.467 L18.666,1.131 L34.518,12.911 C34.518,12.870 34.898,13.341 34.898,13.714 C34.898,14.206 34.503,14.607 34.19,14.607 L31.555,14.608 C31.251,14.608 31.5,14.858 31.5,15.166 L31.5,32.894 C31.5,33.426 30.577,33.865 30.54,33.871 L29.586,33.871 C29.55,33.871 28.624,33.433 28.624,32.894 L28.624,15.166 C28.624,14.858 28.378,14.608 28.74,14.608 C21.635,14.608 15.197,14.608 8.759,14.608 C8.454,14.608 8.208,14.858 8.208,15.166 L8.208,32.894 C8.208,33.433 7.776,33.871 7.246,33.871 L6.802,33.871 C6.272,33.871 5.840,33.433 5.840,32.894 L5.840,15.166 C5.840,14.858 5.593,14.608 5.290,14.608 L1.976,14.608 C1.492,14.608 1.96,14.206 1.96,13.714 C1.96,12.814 2.889,11.784 3.592,11.176 C4.140,10.704 3.431,9.857 2.883,10.330 C1.828,11.241 0.3,12.115 0.3,13.714 C0.3,14.819 0.888,15.725 1.976,15.725 L4.740,15.725 L4.740,32.894 C4.740,34.37 5.656,34.975 6.778,34.989 L7.246,34.989 C8.379,34.989 9.308,34.45 9.308,32.894 L9.308,17.612 L9.308,17.612 Z"/>
</svg>