<svg 
 xmlns="http://www.w3.org/2000/svg"
 xmlns:xlink="http://www.w3.org/1999/xlink"
 width="30px" height="27px">
<path fill-rule="evenodd"  fill="rgb(255, 255, 255)"
 d="M17.585,18.999 C16.442,18.999 15.516,18.103 15.516,16.999 L15.516,14.999 C15.516,13.894 16.442,12.999 17.585,12.999 L29.999,12.999 L29.999,18.999 L17.585,18.999 ZM19.137,14.582 C18.280,14.582 17.585,15.254 17.585,16.82 C17.585,16.910 18.280,17.582 19.137,17.582 C19.994,17.582 20.688,16.910 20.688,16.82 C20.688,15.254 19.994,14.582 19.137,14.582 ZM14.482,14.999 L14.482,16.999 C14.482,18.656 15.871,19.999 17.585,19.999 L27.930,19.999 L27.930,23.999 C27.930,25.656 26.540,26.999 24.826,26.999 L3.102,26.999 C1.388,26.999 0.0,25.656 0.0,23.999 L0.0,4.999 C0.0,3.342 1.388,1.998 3.102,1.998 L13.66,1.998 L10.636,2.978 L2.586,2.978 C1.729,2.978 1.34,3.650 1.34,4.478 C1.34,5.306 1.729,5.978 2.586,5.978 L27.930,5.978 L27.930,11.999 L17.585,11.999 C15.871,11.999 14.482,13.342 14.482,14.999 ZM4.137,7.999 L2.68,7.999 L2.68,9.999 L3.102,9.999 L3.102,8.999 L4.137,8.999 L4.137,7.999 ZM4.137,10.999 L2.68,10.999 L2.68,12.999 L3.146,12.999 L3.102,11.999 L4.137,12.20 L4.137,10.999 ZM4.137,13.999 L2.68,13.999 L2.68,15.999 L3.124,15.999 L3.102,14.999 L4.137,14.999 L4.137,13.999 ZM4.137,16.999 L2.68,16.999 L2.68,18.999 L3.124,18.999 L3.102,17.999 L4.137,18.20 L4.137,16.999 ZM4.137,19.999 L2.68,19.999 L2.68,21.999 L3.102,21.999 L3.102,20.999 L4.137,20.999 L4.137,19.999 ZM4.137,22.999 L2.68,22.999 L2.68,24.999 L3.124,24.999 L3.102,24.19 L4.137,24.19 L4.137,22.999 ZM8.275,4.936 L20.430,0.0 L22.758,4.936 L8.275,4.936 ZM22.392,1.998 L24.826,1.998 C25.732,1.998 26.540,2.380 27.107,2.978 L22.885,2.978 L22.392,1.998 Z"/>
</svg>