<svg 
 xmlns="http://www.w3.org/2000/svg"
 xmlns:xlink="http://www.w3.org/1999/xlink"
 width="20px" height="32px">
<path fill-rule="evenodd"  fill="rgb(255, 255, 255)"
 d="M2.964,3.819 C2.935,4.837 2.924,4.557 3.277,6.499 C3.953,6.228 5.100,6.20 6.908,6.381 C8.989,6.796 9.952,7.405 10.822,7.956 C12.753,9.177 13.939,8.992 16.164,8.393 C17.61,6.335 17.53,5.204 17.13,3.819 L2.964,3.819 L2.964,3.819 ZM9.725,11.849 C10.44,11.849 10.305,12.109 10.305,12.428 C10.305,12.748 10.44,13.6 9.725,13.6 C9.405,13.6 9.145,12.748 9.145,12.428 C9.145,12.109 9.405,11.849 9.725,11.849 L9.725,11.849 ZM7.253,9.154 C7.572,9.154 7.833,9.413 7.833,9.732 C7.833,10.52 7.572,10.310 7.253,10.310 C6.933,10.310 6.673,10.52 6.673,9.732 C6.673,9.413 6.933,9.154 7.253,9.154 L7.253,9.154 ZM12.334,10.635 C12.653,10.635 12.913,10.895 12.913,11.214 C12.913,11.533 12.653,11.792 12.334,11.792 C12.13,11.792 11.754,11.533 11.754,11.214 C11.754,10.895 12.13,10.635 12.334,10.635 L12.334,10.635 ZM10.507,16.838 C10.827,16.838 11.87,17.98 11.87,17.416 C11.87,17.736 10.827,17.995 10.507,17.995 C10.187,17.995 9.927,17.736 9.927,17.416 C9.927,17.98 10.187,16.838 10.507,16.838 L10.507,16.838 ZM9.28,18.660 C9.348,18.660 9.608,18.919 9.608,19.239 C9.608,19.558 9.348,19.816 9.28,19.816 C8.709,19.816 8.449,19.558 8.449,19.239 C8.449,18.919 8.709,18.660 9.28,18.660 L9.28,18.660 ZM7.629,25.927 C7.950,25.927 8.209,26.187 8.209,26.505 C8.209,26.825 7.950,27.84 7.629,27.84 C7.310,27.84 7.50,26.825 7.50,26.505 C7.50,26.187 7.310,25.927 7.629,25.927 L7.629,25.927 ZM10.536,27.77 C10.256,27.36 10.43,26.796 10.43,26.505 C10.43,26.216 10.256,25.975 10.536,25.933 L10.536,25.927 L10.622,25.927 L12.753,25.927 C13.73,25.927 13.333,26.187 13.333,26.505 C13.333,26.825 13.73,27.84 12.753,27.84 L10.622,27.84 L10.536,27.84 L10.536,27.77 L10.536,27.77 ZM3.12,28.110 C2.993,28.145 2.908,28.239 2.908,28.261 L16.976,28.261 C16.929,28.219 16.887,28.169 16.855,28.110 C16.851,28.101 15.163,25.488 13.539,24.341 C12.157,23.364 10.495,22.580 9.934,22.327 C9.373,22.580 7.710,23.364 6.328,24.341 C4.705,25.488 3.17,28.101 3.12,28.110 L3.12,28.110 ZM2.991,26.987 C3.688,25.932 4.687,24.354 5.699,23.639 C7.481,22.381 9.708,21.423 9.714,21.421 C9.786,21.392 9.860,21.378 9.932,21.380 L9.935,21.380 C10.8,21.378 10.82,21.392 10.153,21.421 C10.159,21.423 12.387,22.381 14.168,23.639 C15.240,24.397 16.297,26.92 16.997,27.170 C16.937,25.798 16.847,24.156 16.712,22.881 C16.454,20.434 10.422,15.564 10.405,15.550 C10.157,15.349 10.120,14.985 10.321,14.739 C10.345,14.709 10.372,14.683 10.401,14.658 C10.689,14.391 13.441,11.843 15.207,9.787 C13.16,10.182 12.34,10.90 10.201,8.931 C9.419,8.437 8.554,7.889 6.680,7.516 C4.786,7.138 3.902,7.418 3.539,7.622 C3.725,8.250 3.966,8.797 4.279,9.191 C6.52,11.420 9.594,14.673 9.604,14.683 C9.837,14.899 9.849,15.264 9.632,15.495 C9.614,15.515 9.594,15.532 9.574,15.549 L9.575,15.550 C9.558,15.564 3.525,20.434 3.267,22.881 C3.140,24.100 3.50,25.653 2.991,26.987 L2.991,26.987 ZM19.993,32.6 L0.9,32.6 L0.9,30.140 C0.9,29.151 0.773,28.336 1.751,28.278 C1.787,27.23 1.894,24.890 2.117,22.764 C2.373,20.335 6.816,16.370 8.338,15.77 C7.294,14.95 4.786,11.687 3.373,9.910 C2.923,9.345 2.600,8.542 2.366,7.645 C2.336,7.577 2.318,7.507 2.314,7.434 C1.765,5.142 1.778,4.851 1.811,3.717 C0.804,3.691 0.11,2.863 0.11,1.853 L0.11,0.11 L19.991,0.11 L19.991,1.853 C19.991,2.861 19.174,3.693 18.168,3.717 C18.208,5.143 18.220,6.711 17.120,9.59 C17.104,9.107 17.83,9.151 17.56,9.193 C16.922,9.460 16.774,9.701 16.606,9.910 C15.193,11.687 12.686,14.95 11.641,15.77 C13.164,16.370 17.606,20.335 17.863,22.764 C18.86,24.890 18.194,27.23 18.229,28.278 C19.208,28.334 19.993,29.153 19.993,30.140 L19.993,32.6 L19.993,32.6 Z"/>
</svg>