<svg 
 xmlns="http://www.w3.org/2000/svg"
 xmlns:xlink="http://www.w3.org/1999/xlink"
 width="32px" height="41px">
<path fill-rule="evenodd"  fill="rgb(255, 255, 255)"
 d="M7.95,22.123 C7.406,22.123 7.658,22.378 7.658,22.695 C7.658,23.12 7.406,23.266 7.95,23.266 L7.66,23.266 C6.121,23.297 5.368,24.82 5.368,25.49 C5.368,26.38 6.153,26.834 7.125,26.834 C8.98,26.834 8.882,26.38 8.882,25.49 C8.882,24.945 8.873,24.841 8.856,24.741 C8.845,24.696 8.839,24.649 8.839,24.601 C8.839,24.285 9.92,24.29 9.402,24.29 C9.691,24.29 9.929,24.250 9.962,24.535 C9.991,24.701 10.7,24.873 10.7,25.49 C10.7,26.663 8.713,27.977 7.125,27.977 C5.535,27.977 4.243,26.665 4.243,25.49 C4.243,23.460 5.498,22.162 7.54,22.125 C7.68,22.123 7.81,22.123 7.95,22.123 L7.95,22.123 ZM20.999,31.264 C20.999,31.632 20.705,31.932 20.343,31.932 C19.980,31.932 19.686,31.632 19.686,31.264 L19.686,30.360 C19.654,30.73 19.492,29.889 19.292,29.809 C19.98,29.730 18.847,29.730 18.654,29.809 C18.430,29.899 18.254,30.118 18.254,30.468 L18.254,33.589 C18.254,34.121 20.64,37.939 20.510,38.871 L22.120,39.666 C22.272,39.711 22.409,39.812 22.497,39.962 C22.684,40.278 22.582,40.691 22.271,40.881 C22.59,41.10 21.805,41.4 21.605,40.889 L19.734,39.965 C19.597,39.898 19.492,39.788 19.431,39.657 L19.429,39.659 C19.422,39.645 16.941,34.518 16.941,33.589 L16.941,30.468 C16.941,29.488 17.479,28.856 18.167,28.574 C18.651,28.377 19.193,28.364 19.686,28.538 L19.686,20.8 C19.686,19.32 20.225,18.402 20.914,18.123 C21.430,17.913 22.6,17.913 22.521,18.123 C23.211,18.402 23.750,19.32 23.750,20.8 L23.750,26.408 C24.246,26.229 24.792,26.241 25.281,26.439 C25.490,26.524 25.685,26.642 25.855,26.792 C26.24,26.645 26.216,26.531 26.422,26.447 C26.937,26.239 27.514,26.239 28.29,26.447 C28.505,26.641 28.908,27.0 29.114,27.524 L29.173,27.500 C29.689,27.290 30.265,27.290 30.781,27.498 C31.470,27.779 32.9,28.409 32.9,29.385 L32.9,35.838 C32.9,35.948 31.983,36.49 31.937,36.141 L30.664,39.187 C30.650,39.235 30.631,39.282 30.606,39.325 L30.602,39.335 L30.600,39.335 C30.547,39.429 30.469,39.511 30.371,39.570 C30.59,39.761 29.654,39.657 29.467,39.340 C29.339,39.125 29.346,38.866 29.461,38.661 L30.696,35.706 L30.696,29.385 C30.696,29.39 30.522,28.823 30.299,28.733 C30.106,28.656 29.848,28.656 29.655,28.733 C29.432,28.823 29.258,29.39 29.258,29.385 L29.263,31.230 C29.263,31.598 28.969,31.898 28.607,31.898 C28.244,31.898 27.950,31.598 27.950,31.230 L27.946,28.333 C27.946,27.988 27.771,27.772 27.547,27.682 C27.355,27.603 27.96,27.603 26.904,27.682 C26.681,27.772 26.507,27.988 26.507,28.333 L26.507,31.230 C26.507,31.598 26.214,31.898 25.850,31.898 C25.488,31.898 25.195,31.598 25.195,31.230 L25.195,28.333 C25.195,27.984 25.18,27.764 24.794,27.674 C24.600,27.593 24.349,27.593 24.156,27.674 C23.932,27.764 23.756,27.984 23.756,28.333 L23.756,31.292 C23.756,31.659 23.462,31.958 23.100,31.958 C22.737,31.958 22.443,31.659 22.443,31.292 C22.443,27.382 22.437,23.917 22.437,20.8 C22.437,19.663 22.263,19.447 22.39,19.357 C21.847,19.279 21.589,19.279 21.396,19.357 C21.173,19.447 20.999,19.663 20.999,20.8 L20.999,30.292 C21.20,30.607 20.999,30.947 20.999,31.264 L20.999,31.264 ZM26.597,7.750 C26.280,7.750 26.24,7.489 26.24,7.168 C26.24,6.846 26.280,6.586 26.597,6.586 C26.914,6.586 27.170,6.846 27.170,7.168 C27.170,7.489 26.914,7.750 26.597,7.750 L26.597,7.750 ZM22.323,11.342 C22.575,11.376 23.107,11.50 23.107,10.643 C23.107,10.259 22.819,9.960 22.455,9.938 L12.779,9.927 L12.779,9.937 C12.402,9.945 12.99,10.254 12.99,10.643 C12.99,11.29 12.410,11.349 12.794,11.349 C15.628,11.349 19.489,11.342 22.323,11.342 L22.323,11.342 ZM12.697,22.777 L16.593,22.777 C16.992,22.750 17.330,23.78 17.330,23.482 C17.330,23.858 17.42,24.164 16.679,24.187 L12.640,24.191 L12.640,24.187 C12.263,24.180 11.960,23.866 11.960,23.482 C11.960,23.76 12.298,22.752 12.697,22.777 L12.697,22.777 ZM12.697,25.796 L14.898,25.796 C15.297,25.768 15.635,26.95 15.635,26.500 C15.635,26.876 15.347,27.182 14.983,27.205 L12.640,27.209 L12.640,27.206 C12.263,27.198 11.960,26.884 11.960,26.500 C11.960,26.94 12.298,25.770 12.697,25.796 L12.697,25.796 ZM12.697,17.902 L16.593,17.902 C16.992,17.875 17.330,18.202 17.330,18.607 C17.330,18.982 17.42,19.289 16.679,19.311 L12.640,19.316 L12.640,19.313 C12.263,19.305 11.960,18.992 11.960,18.607 C11.960,18.201 12.298,17.877 12.697,17.902 L12.697,17.902 ZM12.697,14.884 L17.241,14.884 C17.640,14.857 17.978,15.184 17.978,15.589 C17.978,15.964 17.690,16.271 17.326,16.294 L12.640,16.298 L12.640,16.295 C12.263,16.287 11.960,15.973 11.960,15.589 C11.960,15.183 12.298,14.859 12.697,14.884 L12.697,14.884 ZM12.836,7.23 L20.313,7.23 C20.712,6.997 21.51,7.323 21.51,7.728 C21.51,8.103 20.763,8.411 20.398,8.432 L12.779,8.439 L12.779,8.434 C12.402,8.426 12.99,8.113 12.99,7.728 C12.99,7.321 12.437,6.999 12.836,7.23 L12.836,7.23 ZM26.597,4.97 C26.306,4.97 26.65,3.876 26.29,3.591 L26.22,2.938 C26.22,1.896 25.295,1.161 24.271,1.161 L2.723,1.156 C1.856,1.156 1.145,1.879 1.145,2.760 C1.145,14.109 1.145,21.667 1.145,33.15 C1.145,33.895 1.856,34.618 2.723,34.618 C6.483,34.616 10.243,34.614 14.2,34.614 C14.318,34.614 14.576,34.876 14.576,35.198 C14.576,35.543 14.307,35.790 13.971,35.780 C10.222,35.780 6.473,35.782 2.723,35.783 C1.223,35.783 0.2,34.539 0.2,33.15 C0.2,21.667 0.2,14.109 0.2,2.760 C0.2,1.235 1.223,0.8 2.723,0.8 L24.271,0.4 C25.863,0.4 27.169,1.321 27.169,2.938 L27.165,3.591 C27.129,3.876 26.888,4.97 26.597,4.97 L26.597,4.97 ZM26.22,10.696 C26.12,10.356 26.254,10.83 26.595,10.83 C26.911,10.83 27.168,10.345 27.168,10.665 C27.168,13.82 27.168,20.24 27.168,22.439 C27.168,22.762 26.911,23.21 26.595,23.21 C26.254,23.21 26.12,22.750 26.22,22.409 L26.22,10.696 L26.22,10.696 ZM11.306,26.454 C11.306,23.409 11.306,29.499 11.306,26.454 L11.306,26.454 ZM11.306,7.925 C11.306,4.616 11.306,11.234 11.306,7.925 L11.306,7.925 ZM7.95,6.365 C7.406,6.365 7.658,6.622 7.658,6.938 C7.658,7.254 7.406,7.510 7.95,7.510 L7.66,7.508 C6.121,7.541 5.368,8.324 5.368,9.293 C5.368,10.280 6.153,11.76 7.125,11.76 C8.98,11.76 8.882,10.280 8.882,9.293 C8.882,9.187 8.873,9.84 8.856,8.983 C8.845,8.940 8.839,8.893 8.839,8.845 C8.839,8.529 9.92,8.273 9.402,8.273 C9.691,8.273 9.929,8.494 9.962,8.777 C9.991,8.945 10.7,9.117 10.7,9.293 C10.7,10.906 8.713,12.219 7.125,12.219 C5.535,12.219 4.243,10.907 4.243,9.293 C4.243,7.703 5.498,6.405 7.54,6.367 C7.68,6.365 7.81,6.365 7.95,6.365 L7.95,6.365 ZM7.95,14.226 C7.406,14.226 7.658,14.483 7.658,14.799 C7.658,15.115 7.406,15.371 7.95,15.371 L7.66,15.370 C6.121,15.400 5.368,16.185 5.368,17.153 C5.368,18.141 6.153,18.937 7.125,18.937 C8.98,18.937 8.882,18.141 8.882,17.153 C8.882,17.48 8.873,16.945 8.856,16.845 C8.845,16.799 8.838,16.753 8.838,16.705 C8.838,16.390 9.92,16.134 9.402,16.134 C9.691,16.134 9.930,16.354 9.962,16.638 C9.991,16.806 10.7,16.977 10.7,17.153 C10.7,18.766 8.713,20.80 7.125,20.80 C5.535,20.80 4.243,18.768 4.243,17.153 C4.243,15.563 5.498,14.265 7.54,14.228 C7.68,14.226 7.81,14.226 7.95,14.226 L7.95,14.226 Z"/>
</svg>