<svg xmlns="http://www.w3.org/2000/svg" width="40px" height="26px" viewBox="0 0 40 26" fill="#ffffff">
<path d="M38.349,20.62 C37.908,20.62 37.551,19.704 37.551,19.262 C37.551,18.819 37.908,18.461 38.349,18.461 C38.789,18.461 39.146,18.819 39.146,19.262 C39.146,19.704 38.789,20.62 38.349,20.62 ZM31.965,25.104 L31.965,24.927 L31.965,20.389 C33.927,20.389 35.20,20.389 36.983,20.389 C36.983,20.715 36.983,21.41 36.983,21.367 L33.110,21.367 L33.110,22.257 L36.984,22.257 C36.984,22.583 36.984,22.910 36.984,23.236 L33.110,23.236 L33.110,24.126 L37.99,24.126 C37.99,24.452 37.99,24.778 37.99,25.104 L32.142,25.104 L31.965,25.104 ZM30.95,24.985 C29.989,25.23 29.879,25.52 29.767,25.72 C29.657,25.91 29.541,25.102 29.418,25.104 L29.416,25.104 L25.564,25.104 L25.564,20.389 L29.416,20.389 C30.218,20.389 31.173,20.843 31.173,21.734 C31.173,22.109 31.17,22.499 30.744,22.747 C31.17,22.994 31.173,23.373 31.173,23.747 C31.173,24.396 30.658,24.784 30.95,24.985 ZM29.593,21.367 L26.708,21.367 L26.708,22.257 L29.593,22.257 C29.847,22.257 30.206,22.120 30.206,21.812 C30.206,21.506 29.853,21.367 29.593,21.367 ZM30.169,23.522 C30.64,23.319 29.804,23.236 29.593,23.236 L26.708,23.236 L26.708,24.126 L29.593,24.126 C29.686,24.126 29.770,24.114 29.845,24.90 C30.80,24.14 30.303,23.780 30.169,23.522 ZM26.786,7.953 L26.785,7.956 C26.762,8.273 26.177,8.668 24.802,9.489 C22.60,10.998 18.896,12.709 15.725,14.546 C13.964,15.567 13.778,15.388 13.818,12.834 C13.852,11.285 13.856,9.660 13.852,7.969 L13.852,7.969 L13.852,7.936 L13.852,7.903 L13.852,7.903 C13.856,6.213 13.852,4.587 13.818,3.38 C13.778,0.485 13.964,0.306 15.725,1.326 C18.896,3.163 22.60,4.875 24.802,6.383 C26.177,7.204 26.762,7.600 26.785,7.917 L26.786,7.920 L26.786,7.929 L26.786,7.936 L26.786,7.944 L26.786,7.953 ZM18.829,21.367 L16.513,21.367 L16.513,25.104 L15.369,25.104 L15.369,21.367 L13.319,21.367 L13.319,20.389 C15.281,20.389 16.867,20.389 18.829,20.389 C18.829,20.715 18.829,21.41 18.829,21.367 ZM12.273,24.689 C12.24,24.889 11.705,25.24 11.391,25.76 C11.276,25.95 11.160,25.104 11.41,25.104 L8.670,25.104 C8.442,25.104 8.222,25.69 8.10,24.998 C7.903,24.962 7.803,24.921 7.713,24.873 C7.360,24.689 7.52,24.373 6.950,23.978 C6.925,23.881 6.912,23.782 6.912,23.681 L6.912,20.389 C7.294,20.389 7.676,20.389 8.57,20.389 L8.57,23.681 C8.57,23.888 8.237,24.31 8.418,24.90 C8.493,24.114 8.577,24.126 8.670,24.126 L11.41,24.126 C11.302,24.126 11.654,23.987 11.654,23.681 L11.654,20.389 C12.36,20.389 12.417,20.389 12.799,20.389 L12.799,23.681 C12.799,23.982 12.681,24.254 12.488,24.481 C12.425,24.555 12.353,24.625 12.273,24.689 ZM6.530,25.104 L5.250,25.104 L4.18,23.692 L1.656,23.692 L1.656,25.104 L0.511,25.104 L0.511,20.389 L4.640,20.389 C4.749,20.389 4.860,20.397 4.971,20.416 C5.667,20.528 6.397,21.43 6.397,21.812 L6.397,22.435 C6.397,22.990 5.964,23.460 5.485,23.679 L6.552,24.982 L6.530,25.104 ZM5.253,21.812 C5.253,21.505 4.900,21.367 4.640,21.367 L1.656,21.367 L1.656,22.880 L4.640,22.880 C4.899,22.880 5.253,22.744 5.253,22.435 L5.253,21.812 ZM20.626,23.681 C20.626,23.739 20.639,23.792 20.664,23.840 C20.768,24.42 21.27,24.126 21.240,24.126 L23.212,24.126 C23.305,24.126 23.389,24.114 23.464,24.90 C23.645,24.31 23.825,23.888 23.825,23.681 L23.825,20.389 C24.207,20.389 24.588,20.389 24.970,20.389 L24.970,23.681 C24.970,23.778 24.957,23.873 24.933,23.968 C24.802,24.474 24.363,24.824 23.891,24.991 C23.674,25.68 23.442,25.104 23.212,25.104 L21.240,25.104 C21.11,25.104 20.791,25.69 20.580,24.998 C20.2,24.805 19.482,24.333 19.482,23.681 L19.482,20.389 C19.863,20.389 20.245,20.389 20.626,20.389 L20.626,23.681 Z"/>
</svg>	