<svg xmlns="http://www.w3.org/2000/svg" width="53px" height="44px" viewBox="0 0 53 44" fill="#b9b9b9">
<path d="M3.97,0.12 L22.651,0.9 C24.457,0.9 25.940,1.486 25.940,3.310 L25.940,6.535 C25.940,6.535 25.636,7.193 25.288,7.193 C24.928,7.193 24.636,6.898 24.636,6.535 L24.637,3.310 C24.637,2.136 23.812,1.305 22.651,1.305 L3.97,1.301 C2.112,1.301 1.305,2.116 1.305,3.110 L1.305,42.690 L13.633,42.690 C13.631,42.646 13.629,42.601 13.629,42.556 L13.629,34.843 C13.629,33.655 14.590,32.686 15.767,32.686 L19.829,32.686 C21.7,32.686 21.966,33.655 21.966,34.843 L21.966,42.556 C21.966,42.601 21.965,42.646 21.962,42.690 L24.662,42.692 L24.637,13.688 C24.626,13.303 24.901,12.996 25.288,12.996 C25.647,12.996 25.939,13.291 25.939,13.654 L25.940,43.96 C25.940,43.459 25.648,43.753 25.288,43.753 L0.653,44.4 C0.294,44.4 0.2,43.711 0.2,43.347 L0.2,3.110 C0.2,1.391 1.394,0.12 3.97,0.12 L3.97,0.12 ZM48.682,28.961 C48.682,27.377 48.681,25.793 48.680,24.210 L46.24,24.210 L46.24,26.867 C46.24,27.178 45.774,27.432 45.465,27.432 C45.128,27.432 44.843,27.131 44.576,26.952 C43.284,26.83 42.59,25.193 40.760,24.234 L38.968,25.310 C36.256,27.12 32.635,28.879 30.255,30.617 C29.448,31.206 28.529,31.878 28.529,32.556 C28.529,33.723 30.61,33.459 30.849,33.459 C31.157,33.459 31.408,33.712 31.408,34.24 L31.408,41.889 C31.408,42.433 31.847,42.875 32.386,42.875 C35.719,42.875 44.936,42.875 48.270,42.875 C48.808,42.875 49.247,42.433 49.247,41.889 L49.247,34.24 C49.247,33.712 49.498,33.459 49.806,33.459 C50.578,33.459 52.31,33.704 52.31,32.556 C52.31,31.878 51.255,31.206 50.304,30.617 C49.947,30.356 49.513,30.107 49.132,29.866 C48.663,29.569 48.735,29.3 48.682,28.961 L48.682,28.961 ZM44.924,25.810 L44.907,25.649 L44.907,23.971 C44.907,23.480 45.301,23.82 45.788,23.82 L48.918,23.82 C49.403,23.82 49.798,23.481 49.798,23.971 L49.798,28.985 C50.108,29.177 50.520,29.511 50.886,29.745 C51.950,30.425 53.10,31.182 53.10,32.358 C53.10,33.476 52.627,34.588 51.136,34.588 L50.366,34.588 L50.366,41.889 C50.366,43.52 49.421,44.4 48.270,44.4 C44.936,44.4 35.719,44.4 32.386,44.4 C31.234,44.4 30.289,43.52 30.289,41.889 L30.289,34.588 L29.423,34.588 C27.931,34.588 27.548,33.476 27.548,32.358 C27.548,31.105 28.578,30.452 29.600,29.705 C30.383,29.133 33.917,27.199 33.646,27.218 L40.162,23.207 C40.392,22.984 41.71,22.964 41.326,23.183 L44.924,25.810 L44.924,25.810 ZM34.835,35.172 L37.614,35.172 C38.547,35.172 39.307,35.939 39.307,36.881 L39.307,39.136 C39.307,40.80 38.547,40.847 37.614,40.847 L34.835,40.847 C33.902,40.847 33.142,40.78 33.142,39.136 L33.142,36.881 C33.142,35.940 33.902,35.172 34.835,35.172 L34.835,35.172 ZM42.945,35.172 L45.723,35.172 C46.656,35.172 47.417,35.939 47.417,36.881 L47.417,39.136 C47.417,40.80 46.656,40.847 45.723,40.847 L42.945,40.847 C42.12,40.847 41.251,40.78 41.251,39.136 L41.251,36.881 C41.251,35.940 42.12,35.172 42.945,35.172 L42.945,35.172 ZM45.723,36.214 L42.945,36.214 C42.583,36.214 42.283,36.515 42.283,36.881 L42.283,39.136 C42.283,39.504 42.583,39.803 42.945,39.803 L45.723,39.803 C46.86,39.803 46.384,39.504 46.384,39.136 L46.384,36.881 C46.384,36.698 46.310,36.532 46.190,36.411 C46.70,36.289 45.904,36.214 45.723,36.214 L45.723,36.214 ZM34.835,36.214 C34.473,36.214 34.174,36.515 34.174,36.881 L34.174,39.136 C34.174,39.504 34.473,39.803 34.835,39.803 L37.614,39.803 C37.977,39.803 38.274,39.504 38.274,39.136 L38.274,36.881 C38.274,36.698 38.200,36.532 38.80,36.411 C37.718,36.45 35.434,36.214 34.835,36.214 L34.835,36.214 ZM25.230,8.836 C25.589,8.836 25.881,9.131 25.881,9.494 C25.881,9.857 25.589,10.151 25.230,10.151 C24.871,10.151 24.578,9.857 24.578,9.494 C24.578,9.131 24.871,8.836 25.230,8.836 L25.230,8.836 ZM20.653,42.690 C20.659,42.646 20.663,42.601 20.663,42.556 L20.663,34.843 C20.663,34.381 20.287,34.2 19.829,34.2 L15.767,34.2 C15.308,34.2 14.933,34.381 14.933,34.843 L14.933,42.556 C14.933,42.601 14.936,42.646 14.943,42.690 L20.653,42.690 L20.653,42.690 ZM16.124,4.19 L20.581,4.19 C21.758,4.19 22.718,4.989 22.718,6.176 L22.718,12.178 C22.718,13.364 21.758,14.334 20.581,14.334 L16.124,14.334 C14.947,14.334 13.987,13.365 13.987,12.178 L13.987,6.176 C13.987,4.989 14.947,4.19 16.124,4.19 L16.124,4.19 ZM20.581,5.334 L16.124,5.334 C15.667,5.334 15.290,5.714 15.290,6.176 L15.290,12.178 C15.290,12.640 15.666,13.18 16.124,13.18 L20.581,13.18 C21.38,13.18 21.414,12.640 21.414,12.178 L21.414,6.176 C21.414,5.714 21.38,5.334 20.581,5.334 L20.581,5.334 ZM5.333,4.19 L9.789,4.19 C10.965,4.19 11.926,4.989 11.926,6.176 L11.926,12.178 C11.926,13.364 10.965,14.334 9.789,14.334 L5.333,14.334 C4.156,14.334 3.195,13.364 3.195,12.178 L3.195,6.176 C3.195,4.989 4.155,4.19 5.333,4.19 L5.333,4.19 ZM9.789,5.334 L5.333,5.334 C4.875,5.334 4.498,5.714 4.498,6.176 L4.498,12.178 C4.498,12.640 4.875,13.18 5.333,13.18 L9.789,13.18 C10.247,13.18 10.623,12.640 10.623,12.178 L10.623,6.176 C10.623,5.714 10.246,5.334 9.789,5.334 L9.789,5.334 ZM5.333,15.968 L9.789,15.968 C10.965,15.968 11.926,16.938 11.926,18.125 L11.926,23.262 C11.926,24.450 10.965,25.419 9.789,25.419 L5.333,25.419 C4.155,25.419 3.195,24.450 3.195,23.262 L3.195,18.125 C3.195,16.938 4.155,15.968 5.333,15.968 L5.333,15.968 ZM9.789,17.283 L5.333,17.283 C4.875,17.283 4.498,17.663 4.498,18.125 L4.498,23.262 C4.498,23.725 4.875,24.104 5.333,24.104 L9.789,24.104 C10.246,24.104 10.623,23.725 10.623,23.262 L10.623,18.125 C10.623,17.663 10.247,17.283 9.789,17.283 L9.789,17.283 ZM16.124,15.968 L20.581,15.968 C21.758,15.968 22.718,16.938 22.718,18.125 L22.718,23.262 C22.718,23.856 22.477,24.396 22.90,24.787 C21.704,25.177 21.169,25.419 20.581,25.419 L16.124,25.419 C14.947,25.419 13.987,24.450 13.987,23.262 L13.987,18.125 C13.987,16.938 14.947,15.968 16.124,15.968 L16.124,15.968 ZM20.581,17.283 L16.124,17.283 C15.666,17.283 15.290,17.663 15.290,18.125 L15.290,23.262 C15.290,23.725 15.667,24.104 16.124,24.104 L20.581,24.104 C21.38,24.104 21.414,23.725 21.414,23.262 L21.414,18.125 C21.414,17.663 21.39,17.283 20.581,17.283 L20.581,17.283 ZM5.333,26.914 L9.789,26.914 C10.965,26.914 11.926,27.883 11.926,29.71 L11.926,34.208 C11.926,35.396 10.965,36.365 9.789,36.365 L5.333,36.365 C4.155,36.365 3.195,35.396 3.195,34.208 L3.195,29.71 C3.195,27.883 4.155,26.914 5.333,26.914 L5.333,26.914 ZM9.789,28.229 L5.333,28.229 C4.875,28.229 4.498,28.608 4.498,29.71 L4.498,34.208 C4.498,34.670 4.875,35.50 5.333,35.50 L9.789,35.50 C10.247,35.50 10.623,34.670 10.623,34.208 L10.623,29.71 C10.623,28.608 10.247,28.229 9.789,28.229 L9.789,28.229 Z"/>
</svg>