<svg xmlns="http://www.w3.org/2000/svg" width="59px" height="71px" viewBox="0 0 59 71" fill="#0a6eaa">
<path d="M55.875,61.815 L48.169,38.367 C47.286,35.680 43.124,37.8 44.7,39.696 L45.449,44.82 C45.938,45.570 43.640,46.304 43.151,44.815 L40.922,38.33 C40.39,35.347 35.877,36.676 36.760,39.362 L38.989,46.144 C39.478,47.633 37.182,48.366 36.692,46.878 L34.464,40.96 C33.925,38.459 32.86,38.189 30.875,39.183 C30.296,39.660 29.979,40.445 30.302,41.426 L32.517,48.167 C33.32,49.735 30.716,50.410 30.233,48.940 L28.5,42.159 L24.285,30.840 C23.747,29.205 21.900,28.965 20.698,29.949 C20.121,30.421 19.804,31.200 20.123,32.169 L27.611,54.955 L29.190,59.759 C29.395,60.383 29.47,61.56 28.414,61.257 C27.780,61.459 27.99,61.117 26.893,60.491 L25.314,55.688 C24.993,54.708 24.268,54.255 23.516,54.204 C21.944,54.98 20.614,55.382 21.152,57.19 L23.489,64.127 C23.931,65.474 28.167,68.317 28.179,68.326 C29.478,69.223 28.94,71.168 26.797,70.273 C26.784,70.263 22.576,67.463 21.409,65.338 L5.267,65.338 C3.813,65.338 2.493,64.753 1.537,63.809 C1.512,63.785 1.490,63.761 1.468,63.735 C0.551,62.797 0.13,61.524 0.13,60.133 L0.13,5.997 C0.13,4.569 0.579,3.269 1.537,2.325 L1.539,2.322 L1.541,2.320 L1.542,2.319 C2.501,1.376 3.819,0.792 5.267,0.792 L41.778,0.792 C43.227,0.792 44.547,1.378 45.506,2.322 L45.509,2.320 C46.465,3.262 47.59,4.565 47.59,5.997 L47.59,34.603 C48.529,34.862 49.865,35.806 50.465,37.634 L58.173,61.82 C58.662,62.570 56.364,63.305 55.875,61.815 ZM23.680,51.837 C24.416,51.886 18.496,34.943 17.826,32.902 C17.155,30.861 17.879,29.176 19.166,28.122 C21.660,26.80 25.505,26.830 26.582,30.106 L29.49,37.614 C30.497,36.214 32.830,35.792 34.640,36.747 C35.276,35.485 36.517,34.615 37.892,34.311 L37.892,11.594 C37.892,11.153 37.707,10.750 37.411,10.457 C37.114,10.165 36.705,9.984 36.257,9.984 L10.788,9.984 C10.337,9.984 9.928,10.164 9.632,10.456 C9.337,10.747 9.153,11.150 9.153,11.594 L9.153,54.535 C9.153,54.977 9.338,55.380 9.634,55.672 L9.632,55.675 C9.928,55.965 10.337,56.146 10.788,56.146 L18.607,56.146 C18.630,54.819 19.255,53.718 20.185,52.952 C21.151,52.157 22.424,51.752 23.680,51.837 ZM43.802,4.3 L43.804,4.0 L43.802,3.998 C43.284,3.488 42.568,3.171 41.778,3.171 L5.267,3.171 C4.477,3.171 3.760,3.488 3.243,3.998 L3.238,4.3 C2.721,4.513 2.400,5.218 2.400,5.997 L2.400,60.133 C2.400,60.886 2.701,61.572 3.189,62.77 L3.243,62.128 C3.763,62.640 4.480,62.958 5.267,62.958 L20.567,62.958 L19.110,58.526 L10.788,58.526 C9.677,58.526 8.665,58.77 7.931,57.354 L7.930,57.352 L7.927,57.354 C7.194,56.633 6.739,55.634 6.739,54.535 L6.739,11.594 C6.739,10.498 7.194,9.502 7.927,8.779 L7.931,8.775 C8.665,8.53 9.677,7.603 10.788,7.603 L36.257,7.603 C37.372,7.603 38.385,8.53 39.118,8.775 C39.851,9.499 40.306,10.497 40.306,11.594 L40.306,34.387 C41.204,34.649 42.25,35.184 42.615,36.52 C43.173,35.465 43.880,35.50 44.645,34.798 L44.645,5.997 C44.645,5.221 44.322,4.515 43.802,4.3 Z"/>
</svg>