<svg xmlns="http://www.w3.org/2000/svg" width="46px" height="35px" viewBox="0 0 46 35" fill="#b9b9b9">
<path d="M33.553,10.880 L33.553,10.881 L31.951,12.619 L33.147,13.792 L34.964,12.183 C35.187,11.987 35.471,11.897 35.749,11.911 L35.752,11.911 L35.781,11.913 L35.783,11.913 C36.53,11.934 36.315,12.54 36.508,12.264 L36.524,12.283 C36.608,12.377 36.671,12.484 36.714,12.595 L36.717,12.600 L36.717,12.600 C36.758,12.706 36.782,12.817 36.788,12.926 L36.790,12.980 L36.790,15.248 L38.369,15.248 L38.369,12.980 C38.369,12.685 38.491,12.416 38.690,12.221 C38.887,12.27 39.162,11.907 39.464,11.907 C39.608,11.907 39.750,11.937 39.880,11.990 L39.883,11.991 L39.883,11.990 C40.6,12.40 40.118,12.111 40.213,12.200 L40.213,12.199 L42.12,13.792 L43.208,12.619 L41.591,10.863 L41.590,10.863 C41.559,10.832 41.531,10.799 41.507,10.763 C41.348,10.557 41.277,10.310 41.289,10.68 L41.289,10.66 L41.291,10.38 L41.292,10.34 C41.313,9.781 41.426,9.536 41.624,9.350 L41.623,9.348 L41.623,9.347 C41.645,9.326 41.669,9.306 41.694,9.287 C41.782,9.218 41.881,9.163 41.988,9.123 L41.987,9.122 C42.79,9.87 42.176,9.65 42.272,9.56 C42.308,9.50 42.343,9.48 42.380,9.48 L44.693,9.48 L44.693,7.500 L42.380,7.500 C42.78,7.500 41.804,7.379 41.606,7.185 C41.408,6.991 41.285,6.722 41.285,6.427 C41.285,6.283 41.316,6.143 41.370,6.15 L41.390,5.973 C41.446,5.854 41.521,5.751 41.607,5.666 L41.608,5.665 L43.208,3.928 L42.12,2.755 L40.220,4.341 L40.220,4.341 C40.188,4.373 40.155,4.400 40.119,4.423 C39.909,4.579 39.656,4.649 39.410,4.637 L39.407,4.637 L39.379,4.635 L39.375,4.634 C39.117,4.613 38.867,4.503 38.676,4.308 L38.675,4.309 L38.674,4.309 C38.652,4.287 38.632,4.264 38.613,4.240 C38.542,4.154 38.486,4.56 38.446,3.952 L38.444,3.952 C38.409,3.862 38.387,3.767 38.378,3.672 C38.372,3.638 38.369,3.603 38.369,3.567 L38.369,1.299 L36.790,1.299 L36.790,3.567 C36.790,3.863 36.667,4.132 36.469,4.326 C36.271,4.520 35.997,4.641 35.695,4.641 C35.552,4.641 35.410,4.610 35.279,4.558 L35.276,4.556 L35.276,4.558 C35.154,4.508 35.42,4.436 34.947,4.348 L34.946,4.348 L33.147,2.755 L31.951,3.928 L33.591,5.709 C33.792,5.928 33.884,6.206 33.869,6.479 L33.869,6.482 L33.867,6.510 L33.867,6.513 C33.845,6.777 33.724,7.34 33.510,7.223 L33.495,7.236 C33.398,7.319 33.286,7.382 33.172,7.426 L33.166,7.427 L33.167,7.428 C33.59,7.469 32.945,7.492 32.834,7.498 L32.779,7.500 L30.466,7.500 L30.466,9.48 L32.779,9.48 C33.81,9.48 33.355,9.168 33.553,9.362 C33.751,9.556 33.874,9.825 33.874,10.121 C33.874,10.262 33.844,10.400 33.789,10.529 L33.787,10.533 L33.789,10.534 C33.734,10.663 33.654,10.781 33.553,10.880 L33.553,10.880 ZM15.709,26.389 C12.421,26.389 9.755,23.776 9.755,20.553 C9.755,17.330 12.421,14.716 15.709,14.716 C18.996,14.716 21.662,17.330 21.662,20.553 C21.662,23.776 18.996,26.389 15.709,26.389 L15.709,26.389 ZM8.59,24.215 L4.579,27.994 L8.119,31.465 L12.2,28.28 C12.308,27.759 12.777,27.783 13.52,28.82 C13.180,28.221 13.243,28.396 13.243,28.569 L13.244,28.569 L13.244,33.530 L18.174,33.530 L18.174,28.569 C18.174,28.166 18.507,27.840 18.918,27.840 C19.124,27.840 19.311,27.922 19.446,28.55 L23.299,31.465 L26.839,27.994 L23.333,24.187 C23.59,23.888 23.83,23.427 23.388,23.158 C23.530,23.33 23.708,22.971 23.886,22.971 L23.886,22.970 L28.946,22.970 L28.946,18.136 L23.886,18.136 C23.474,18.136 23.141,17.810 23.141,17.407 C23.141,17.204 23.225,17.20 23.362,16.888 L26.839,13.111 L23.299,9.641 L19.415,13.78 C19.111,13.347 18.640,13.323 18.366,13.24 C18.238,12.885 18.175,12.710 18.175,12.537 L18.174,12.537 L18.174,7.575 L13.244,7.575 L13.244,12.537 C13.244,12.939 12.910,13.266 12.500,13.266 C12.294,13.266 12.107,13.184 11.973,13.51 L8.119,9.641 L4.579,13.111 L8.85,16.919 C8.359,17.218 8.334,17.679 8.30,17.948 C7.888,18.74 7.709,18.135 7.532,18.135 L7.532,18.136 L2.472,18.136 L2.472,22.970 L7.532,22.970 C7.944,22.970 8.276,23.297 8.276,23.700 C8.276,23.901 8.193,24.83 8.59,24.215 L8.59,24.215 ZM3.2,27.533 L5.859,24.429 L1.728,24.429 C1.317,24.429 0.984,24.102 0.984,23.700 L0.984,17.407 C0.984,17.4 1.317,16.677 1.728,16.677 L5.859,16.677 L3.26,13.600 C2.737,13.316 2.737,12.854 3.27,12.569 L7.566,8.119 L7.566,8.121 C7.844,7.848 8.294,7.834 8.589,8.94 L11.756,10.897 L11.756,6.846 C11.756,6.443 12.89,6.116 12.500,6.116 L18.918,6.116 C19.329,6.116 19.662,6.443 19.662,6.846 L19.662,10.897 L22.800,8.119 C23.91,7.835 23.561,7.835 23.852,8.119 L28.390,12.569 L28.390,12.570 C28.667,12.842 28.682,13.284 28.417,13.573 L25.558,16.677 L29.690,16.677 C30.101,16.677 30.434,17.4 30.434,17.407 L30.434,23.700 C30.434,24.102 30.101,24.429 29.690,24.429 L25.558,24.429 L28.391,27.506 C28.681,27.791 28.681,28.252 28.390,28.537 L23.852,32.986 L23.851,32.986 C23.574,33.258 23.124,33.273 22.828,33.12 L19.662,30.210 L19.662,34.260 C19.662,34.663 19.329,34.990 18.918,34.990 L12.500,34.990 C12.89,34.990 11.756,34.663 11.756,34.260 L11.756,30.210 L8.617,32.987 C8.327,33.271 7.856,33.271 7.566,32.986 L3.27,28.537 L3.28,28.536 C2.750,28.264 2.735,27.822 3.2,27.533 L3.2,27.533 ZM15.709,24.931 C18.175,24.931 20.174,22.971 20.174,20.553 C20.174,18.135 18.175,16.175 15.709,16.175 C13.243,16.175 11.244,18.135 11.244,20.553 C11.244,22.971 13.243,24.931 15.709,24.931 L15.709,24.931 ZM37.579,11.343 C36.715,11.343 35.931,11.0 35.365,10.444 C34.799,9.889 34.448,9.121 34.448,8.274 C34.448,7.426 34.799,6.658 35.365,6.103 C35.931,5.547 36.715,5.203 37.579,5.203 C38.443,5.203 39.227,5.547 39.794,6.103 C40.360,6.658 40.711,7.426 40.711,8.274 C40.711,9.121 40.360,9.889 39.794,10.444 C39.227,11.0 38.443,11.343 37.579,11.343 L37.579,11.343 ZM36.164,9.661 C36.526,10.15 37.27,10.235 37.579,10.235 C38.131,10.235 38.632,10.15 38.994,9.661 C39.356,9.306 39.580,8.815 39.580,8.274 C39.580,7.732 39.356,7.241 38.994,6.886 C38.632,6.531 38.131,6.312 37.579,6.312 C37.27,6.312 36.526,6.531 36.164,6.886 C35.802,7.241 35.578,7.732 35.578,8.274 C35.578,8.815 35.802,9.306 36.164,9.661 L36.164,9.661 ZM30.556,12.212 L32.282,10.338 L29.807,10.338 C29.444,10.338 29.149,10.49 29.149,9.693 L29.149,6.855 C29.149,6.499 29.444,6.209 29.807,6.209 L32.282,6.209 L30.580,4.361 L30.579,4.361 C30.322,4.109 30.322,3.700 30.579,3.448 L32.658,1.411 L32.659,1.412 C32.903,1.171 33.301,1.158 33.563,1.388 L35.474,3.80 L35.474,0.654 C35.474,0.298 35.769,0.9 36.132,0.9 L39.26,0.9 C39.390,0.9 39.685,0.298 39.685,0.654 L39.685,3.80 L41.570,1.412 L41.571,1.411 C41.827,1.159 42.244,1.159 42.501,1.411 L44.580,3.448 L44.578,3.449 C44.824,3.690 44.837,4.79 44.603,4.335 L42.877,6.209 L45.351,6.209 C45.715,6.209 46.9,6.499 46.9,6.855 L46.9,9.693 C46.9,10.49 45.715,10.338 45.351,10.338 L42.877,10.338 L44.578,12.186 L44.580,12.187 C44.836,12.438 44.836,12.847 44.580,13.99 L42.501,15.137 L42.500,15.136 C42.255,15.377 41.857,15.389 41.596,15.160 L39.685,13.467 L39.685,15.894 C39.685,16.250 39.390,16.538 39.26,16.538 L36.132,16.538 C35.769,16.538 35.474,16.250 35.474,15.894 L35.474,13.467 L33.589,15.136 L33.588,15.137 C33.332,15.388 32.914,15.388 32.658,15.137 L30.579,13.99 L30.580,13.98 C30.335,12.857 30.321,12.468 30.556,12.212 L30.556,12.212 Z"/>
</svg>