<svg xmlns="http://www.w3.org/2000/svg" width="39px" height="36px" viewBox="0 0 39 36" fill="#ffffff">
<path d="M22.861,25.332 C21.375,25.332 20.171,24.138 20.171,22.666 L20.171,19.999 C20.171,18.526 21.375,17.332 22.861,17.332 L38.999,17.332 L38.999,25.332 L22.861,25.332 ZM24.878,19.444 C23.764,19.444 22.861,20.339 22.861,21.443 C22.861,22.548 23.764,23.443 24.878,23.443 C25.992,23.443 26.895,22.548 26.895,21.443 C26.895,20.339 25.992,19.444 24.878,19.444 ZM18.826,19.999 L18.826,22.666 C18.826,24.874 20.633,26.666 22.861,26.666 L36.309,26.666 L36.309,31.999 C36.309,34.208 34.503,35.999 32.275,35.999 L4.33,35.999 C1.805,35.999 0.0,34.208 0.0,31.999 L0.0,6.665 C0.0,4.456 1.805,2.665 4.33,2.665 L16.986,2.665 L13.827,3.972 L3.362,3.972 C2.247,3.972 1.344,4.867 1.344,5.971 C1.344,7.76 2.247,7.971 3.362,7.971 L36.309,7.971 L36.309,15.999 L22.861,15.999 C20.633,15.999 18.826,17.790 18.826,19.999 ZM5.378,10.666 L2.689,10.666 L2.689,13.332 L4.34,13.332 L4.34,11.999 L5.378,11.999 L5.378,10.666 ZM5.378,14.666 L2.689,14.666 L2.689,17.332 L4.90,17.332 L4.34,15.999 L5.378,16.27 L5.378,14.666 ZM5.378,18.665 L2.689,18.665 L2.689,21.332 L4.62,21.332 L4.34,19.999 L5.378,19.999 L5.378,18.665 ZM5.378,22.666 L2.689,22.666 L2.689,25.332 L4.62,25.332 L4.34,23.999 L5.378,24.27 L5.378,22.666 ZM5.378,26.666 L2.689,26.666 L2.689,29.332 L4.34,29.332 L4.34,27.999 L5.378,27.999 L5.378,26.666 ZM5.378,30.666 L2.689,30.666 L2.689,33.332 L4.62,33.332 L4.34,32.26 L5.378,32.26 L5.378,30.666 ZM10.758,6.582 L26.560,0.0 L29.586,6.582 L10.758,6.582 ZM29.109,2.665 L32.275,2.665 C33.452,2.665 34.502,3.174 35.239,3.972 L29.750,3.972 L29.109,2.665 Z"/>
</svg>