<svg xmlns="http://www.w3.org/2000/svg" width="87px" height="66px" viewBox="0 0 87 66" fill="#0a6eaa">
<path d="M82.351,59.854 C83.801,59.854 85.1,58.659 85.1,57.214 L85.1,47.203 C85.1,43.207 83.360,39.573 80.716,36.940 C78.72,34.306 74.425,32.672 70.413,32.672 L66.567,32.672 C65.128,32.672 63.818,33.259 62.870,34.203 C61.936,35.133 61.386,36.365 61.333,37.682 L61.330,50.737 L61.329,55.393 C61.329,55.942 60.882,56.388 60.331,56.388 L53.797,56.388 C50.626,56.388 47.438,56.398 44.256,56.398 C44.376,56.940 44.438,57.502 44.438,58.79 C44.438,58.733 44.357,59.368 44.205,59.974 L63.523,59.910 L63.525,59.919 C62.885,57.282 63.665,54.493 65.599,52.567 C67.15,51.156 68.971,50.283 71.133,50.283 C75.450,50.283 78.960,53.780 78.960,58.79 C78.960,58.692 78.889,59.289 78.753,59.862 L82.351,59.854 L82.351,59.854 ZM66.828,35.989 L72.589,35.989 C74.248,35.989 75.761,36.666 76.858,37.758 L76.860,37.760 L76.862,37.762 L76.864,37.764 C77.959,38.857 78.638,40.363 78.638,42.15 L78.638,47.48 C78.638,47.596 78.191,48.42 77.641,48.42 L65.180,48.42 C64.629,48.42 64.182,47.596 64.182,47.48 L64.182,38.624 C64.182,37.899 64.480,37.239 64.958,36.762 C64.980,36.741 65.3,36.721 65.26,36.701 C65.500,36.259 66.136,35.989 66.828,35.989 L66.828,35.989 ZM72.589,37.977 L66.828,37.977 C66.664,37.977 66.515,38.37 66.402,38.135 L66.369,38.168 C66.251,38.285 66.177,38.447 66.177,38.624 L66.177,46.54 L76.643,46.54 L76.643,42.15 C76.643,40.903 76.188,39.894 75.455,39.164 L75.451,39.160 C74.718,38.430 73.705,37.977 72.589,37.977 L72.589,37.977 ZM43.513,54.399 L59.334,54.399 C59.334,42.165 59.346,29.932 59.348,17.698 L59.344,17.698 C59.344,15.828 57.807,14.296 55.929,14.296 L47.740,14.296 C47.753,14.204 47.764,14.113 47.775,14.22 C47.838,13.451 47.867,12.881 47.856,12.308 L55.929,12.308 C58.908,12.308 61.340,14.731 61.340,17.698 L61.336,17.698 L61.334,32.933 C62.736,31.503 64.538,30.684 66.567,30.684 L70.413,30.684 C74.975,30.684 79.123,32.542 82.127,35.534 C85.132,38.528 86.998,42.658 86.998,47.203 L86.998,57.214 C86.998,59.756 84.902,61.842 82.351,61.842 L82.15,61.842 L77.986,61.845 C76.613,64.315 74.7,65.876 71.133,65.876 C68.285,65.876 65.678,64.331 64.302,61.887 L43.402,61.957 C42.14,64.360 39.442,65.876 36.612,65.876 C33.798,65.876 31.242,64.376 29.848,62.1 L23.281,62.17 C21.885,64.387 19.333,65.876 16.527,65.876 C13.750,65.876 11.200,64.409 9.797,62.62 L3.648,62.62 C2.939,62.62 1.887,61.721 1.157,60.756 C0.103,59.363 0.6,56.986 1.189,55.631 C2.96,54.604 3.531,54.399 3.648,54.399 L3.648,54.399 C2.802,53.409 2.289,52.129 2.289,50.737 L2.287,17.698 C1.923,17.698 2.887,12.308 7.695,12.308 L22.561,12.308 C22.549,12.881 22.578,13.451 22.642,14.22 C22.651,14.113 22.664,14.204 22.677,14.296 L7.695,14.296 C5.817,14.296 4.279,15.828 4.279,17.698 L4.285,50.737 C4.285,51.746 4.701,52.665 5.372,53.333 C6.643,54.600 7.926,54.399 9.547,54.399 L9.540,54.413 L9.618,54.413 C10.969,51.889 13.620,50.283 16.527,50.283 C19.437,50.283 22.73,51.890 23.425,54.399 L29.713,54.399 C30.77,53.723 30.539,53.107 31.79,52.569 L31.77,52.567 C32.494,51.156 34.451,50.283 36.612,50.283 C38.773,50.283 40.729,51.157 42.146,52.567 C42.686,53.106 43.148,53.722 43.513,54.399 L43.513,54.399 ZM24.170,56.396 C24.435,57.591 24.412,58.848 24.105,60.34 L29.30,60.23 C28.725,58.842 28.704,57.588 28.968,56.396 L24.170,56.396 L24.170,56.396 ZM8.958,60.74 C8.789,59.438 8.700,58.769 8.700,58.79 C8.700,57.501 8.762,56.937 8.883,56.394 C7.129,56.404 5.397,56.388 3.648,56.388 C3.608,56.388 3.95,56.480 2.686,56.944 C2.132,57.571 2.273,58.933 2.747,59.560 C3.34,59.939 3.406,60.74 3.648,60.74 L8.958,60.74 L8.958,60.74 ZM16.527,52.271 C13.304,52.271 10.695,54.867 10.695,58.79 C10.695,61.291 13.303,63.888 16.527,63.888 C24.195,63.888 24.202,52.271 16.527,52.271 L16.527,52.271 ZM71.133,52.271 C69.522,52.271 68.64,52.921 67.9,53.972 C63.291,57.676 66.41,63.888 71.133,63.888 C74.355,63.888 76.964,61.288 76.964,58.79 C76.964,54.866 74.358,52.271 71.133,52.271 L71.133,52.271 ZM40.735,53.972 C39.681,52.921 38.222,52.271 36.612,52.271 C35.1,52.271 33.543,52.921 32.488,53.972 L32.486,53.970 L32.484,53.972 C28.875,57.567 31.368,63.888 36.612,63.888 C39.835,63.888 42.443,61.288 42.443,58.79 C42.443,56.476 41.790,55.23 40.735,53.972 L40.735,53.972 ZM16.524,53.979 C18.187,53.979 19.716,54.997 20.355,56.532 C20.760,57.597 20.798,58.626 20.355,59.690 C19.715,61.225 18.214,62.242 16.524,62.242 C15.966,62.242 15.430,62.130 14.938,61.926 C13.397,61.289 12.376,59.795 12.376,58.111 C12.376,56.441 13.394,54.928 14.961,54.289 C15.450,54.90 15.979,53.979 16.524,53.979 L16.524,53.979 ZM71.196,53.979 C72.859,53.979 74.385,54.987 75.27,56.532 C75.231,57.70 75.344,57.531 75.344,58.111 C75.344,58.666 75.231,59.200 75.27,59.690 C74.388,61.225 72.886,62.242 71.196,62.242 C70.639,62.242 70.103,62.130 69.611,61.926 C69.119,61.723 68.677,61.431 68.305,61.71 C67.501,60.319 67.49,59.203 67.49,58.111 C67.49,56.415 68.88,54.919 69.633,54.289 C70.122,54.90 70.651,53.979 71.196,53.979 L71.196,53.979 ZM71.196,55.967 C70.900,55.967 70.624,56.23 70.381,56.121 C69.577,56.448 69.44,57.238 69.44,58.111 C69.44,58.979 69.577,59.765 70.375,60.94 C70.624,60.197 70.902,60.254 71.196,60.254 C72.388,60.254 73.348,59.289 73.348,58.111 C73.348,57.831 73.296,57.568 73.204,57.330 C72.835,56.500 72.127,55.967 71.196,55.967 L71.196,55.967 ZM36.656,53.979 C37.213,53.979 37.749,54.92 38.242,54.295 C39.797,55.0 40.803,56.379 40.803,58.111 C40.803,60.375 38.956,62.242 36.656,62.242 C34.383,62.242 32.509,60.401 32.509,58.111 C32.509,55.836 34.374,53.979 36.656,53.979 L36.656,53.979 ZM37.477,56.127 C37.227,56.24 36.950,55.967 36.656,55.967 C35.462,55.967 34.504,56.921 34.504,58.111 C34.504,59.301 35.474,60.254 36.656,60.254 C37.851,60.254 38.808,59.288 38.808,58.111 C38.808,57.265 38.278,56.436 37.477,56.127 L37.477,56.127 ZM16.524,55.967 C15.310,55.967 14.372,56.940 14.372,58.111 C14.372,58.979 14.904,59.765 15.702,60.94 C15.952,60.197 16.230,60.254 16.524,60.254 C17.396,60.254 18.183,59.724 18.515,58.929 C18.723,58.428 18.729,57.836 18.531,57.330 C18.160,56.494 17.448,55.967 16.524,55.967 L16.524,55.967 ZM16.569,38.235 C14.691,38.235 13.153,39.766 13.153,41.637 L13.155,42.98 L13.159,42.98 C13.159,44.115 14.826,45.776 16.852,45.776 L28.694,45.774 C30.2,45.774 30.2,47.754 28.694,47.754 L16.852,47.760 C16.477,47.828 11.163,47.122 11.163,42.98 L11.161,41.637 C11.209,41.88 11.761,36.247 16.569,36.247 L30.543,36.244 C32.804,36.244 34.214,34.468 34.238,32.314 C34.238,31.12 36.226,31.12 36.226,32.314 C36.228,32.715 36.258,33.97 36.169,33.495 C35.814,35.84 34.339,38.232 30.543,38.232 L16.569,38.235 L16.569,38.235 ZM35.264,6.130 C38.257,6.130 40.688,8.553 40.688,11.533 C40.688,14.514 38.257,16.936 35.264,16.936 C32.271,16.936 29.840,14.514 29.840,11.533 C29.840,8.554 32.275,6.130 35.264,6.130 L35.264,6.130 ZM35.272,0.864 C41.239,0.941 46.31,5.599 46.31,11.584 C46.31,11.986 46.5,12.400 45.961,12.799 C45.355,18.132 39.694,25.456 35.970,29.166 C35.580,29.554 34.949,29.554 34.559,29.166 C30.834,25.456 25.173,18.132 24.568,12.799 C24.523,12.400 24.498,11.986 24.498,11.584 C24.498,5.610 29.293,0.930 35.257,0.864 L35.272,0.864 L35.272,0.864 ZM35.264,2.844 C30.404,2.903 26.494,6.712 26.494,11.584 C26.494,11.781 26.499,11.947 26.506,12.83 C26.768,16.848 32.36,23.644 35.264,27.38 C38.408,23.733 43.459,17.180 43.980,12.582 C44.17,12.245 44.35,11.922 44.35,11.584 C44.35,6.712 40.125,2.903 35.264,2.844 L35.264,2.844 ZM35.264,8.118 C33.365,8.118 31.836,9.641 31.836,11.533 C31.836,13.420 33.368,14.948 35.264,14.948 C37.160,14.948 38.693,13.422 38.693,11.533 C38.693,9.643 37.161,8.118 35.264,8.118 L35.264,8.118 ZM37.158,45.777 C38.285,45.777 39.416,45.783 40.544,45.783 C41.852,45.783 41.852,47.763 40.544,47.763 L37.183,47.765 C35.783,47.735 35.883,45.777 37.158,45.777 L37.158,45.777 ZM32.967,45.777 C33.517,45.777 33.965,46.221 33.965,46.771 C33.965,47.319 33.517,47.765 32.967,47.765 C32.415,47.765 31.969,47.320 31.969,46.771 C31.969,46.221 32.415,45.777 32.967,45.777 L32.967,45.777 Z"/>
</svg>