<svg xmlns="http://www.w3.org/2000/svg" width="29px" height="33px" viewBox="0 0 29 33" fill="#b9b9b9">
<path d="M23.249,10.460 C22.952,10.123 22.443,10.95 22.111,10.396 C21.780,10.696 21.752,11.212 22.49,11.549 C22.345,11.885 22.855,11.912 23.186,11.612 C23.517,11.311 23.545,10.794 23.249,10.460 L23.249,10.460 ZM13.87,12.825 C13.87,12.151 13.631,11.601 14.296,11.601 L14.296,11.601 C14.961,11.601 15.504,12.152 15.504,12.825 L15.504,17.997 L18.25,17.997 C18.690,17.997 19.233,18.547 19.233,19.221 L19.233,19.221 C19.233,19.895 18.690,20.445 18.25,20.445 L13.87,20.445 C13.87,17.238 13.87,16.32 13.87,12.825 L13.87,12.825 ZM14.499,5.246 C10.940,5.246 7.718,6.708 5.386,9.70 C3.54,11.434 1.611,14.698 1.611,18.303 C1.611,21.908 3.54,25.173 5.386,27.535 C7.718,29.898 10.940,31.360 14.499,31.360 C18.58,31.360 21.281,29.898 23.613,27.535 C25.945,25.173 27.388,21.908 27.388,18.303 C27.388,14.698 25.945,11.434 23.613,9.70 C21.281,6.708 18.58,5.246 14.499,5.246 L14.499,5.246 ZM4.247,7.916 C6.443,5.692 9.340,4.177 12.574,3.743 L12.574,2.398 L12.48,2.398 C11.397,2.398 10.865,1.859 10.865,1.199 L10.865,1.199 C10.865,0.541 11.397,0.1 12.48,0.1 L16.951,0.1 C17.601,0.1 18.134,0.541 18.134,1.199 L18.134,1.199 C18.134,1.859 17.601,2.398 16.951,2.398 L16.425,2.398 L16.425,3.742 C19.658,4.177 22.556,5.692 24.752,7.916 C27.376,10.574 28.999,14.247 28.999,18.303 C28.999,22.358 27.376,26.30 24.752,28.689 C22.128,31.347 18.502,32.992 14.499,32.992 C10.496,32.992 6.871,31.347 4.247,28.689 C1.623,26.30 0.0,22.358 0.0,18.303 C0.0,14.247 1.623,10.574 4.247,7.916 L4.247,7.916 ZM19.260,7.489 C19.667,7.669 19.852,8.149 19.674,8.560 C19.498,8.971 19.24,9.159 18.618,8.981 C16.841,8.193 14.874,7.946 12.971,8.255 C11.132,8.553 9.351,9.374 7.858,10.729 C5.786,12.608 4.663,15.160 4.521,17.766 C4.379,20.373 5.219,23.35 7.74,25.133 C8.929,27.230 11.448,28.370 14.21,28.513 C16.594,28.656 19.221,27.806 21.292,25.926 C22.740,24.613 23.725,22.976 24.235,21.224 C24.763,19.408 24.786,17.465 24.292,15.630 C24.175,15.198 24.427,14.750 24.854,14.632 C25.282,14.514 25.722,14.769 25.839,15.203 C26.413,17.329 26.387,19.580 25.774,21.685 C25.181,23.724 24.40,25.625 22.367,27.142 C19.965,29.323 16.917,30.309 13.932,30.142 C10.948,29.975 8.25,28.655 5.874,26.221 C3.723,23.787 2.748,20.700 2.913,17.676 C3.78,14.653 4.380,11.693 6.783,9.513 C8.512,7.945 10.578,6.993 12.715,6.647 C14.918,6.289 17.197,6.575 19.260,7.489 L19.260,7.489 Z"/>
</svg>