<svg xmlns="http://www.w3.org/2000/svg" width="69px" height="55px" viewBox="0 0 69 55" fill="#0a6eaa">
<path d="M34.499,52.749 L34.499,52.749 L31.558,52.749 C31.558,52.265 31.558,51.780 31.558,51.297 C31.558,50.675 31.54,50.170 30.432,50.170 L9.23,50.170 C7.582,50.170 6.407,48.993 6.407,47.550 L6.407,44.741 L7.759,44.965 C11.462,45.585 30.607,48.995 33.250,50.618 C33.501,50.877 34.21,51.83 34.499,51.125 L34.499,51.125 C34.977,51.83 35.496,50.877 35.747,50.618 C38.391,48.995 57.536,45.585 61.240,44.965 L62.590,44.741 L62.590,47.550 C62.590,48.993 61.415,50.170 59.975,50.170 L38.565,50.170 C37.944,50.170 37.440,50.675 37.440,51.297 C37.440,51.780 37.440,52.265 37.440,52.749 L34.499,52.749 L34.499,52.749 ZM10.332,3.673 C10.413,2.990 10.804,2.86 11.98,1.784 C12.14,0.838 12.786,0.347 13.644,0.128 C14.478,0.84 15.289,0.12 16.348,0.152 C16.453,0.169 16.552,0.199 16.643,0.241 L25.284,4.211 C26.151,4.609 26.593,5.261 26.810,6.134 L26.822,6.185 C26.979,6.848 26.990,7.587 26.990,8.445 L26.990,9.862 C29.599,11.480 32.132,13.366 34.499,15.495 C37.615,12.693 41.17,10.311 44.504,8.408 C48.446,6.257 52.496,4.717 56.367,3.874 C59.554,3.180 60.630,4.180 60.979,5.787 C61.82,6.262 61.89,7.508 61.69,7.995 C63.876,8.355 68.986,8.74 68.987,12.96 L68.991,38.302 C68.993,43.207 67.673,43.956 64.842,44.414 L64.842,47.550 C64.842,50.227 62.647,52.425 59.975,52.425 L39.690,52.425 L39.690,53.105 C39.690,54.78 38.802,55.3 37.795,55.3 L34.499,55.3 L34.499,55.3 L31.202,55.3 C30.196,55.3 29.307,54.78 29.307,53.105 L29.307,52.425 L9.23,52.425 C6.350,52.425 4.156,50.227 4.156,47.550 L4.156,44.414 C1.325,43.956 0.6,43.207 0.7,38.302 L0.11,12.96 C0.12,8.74 5.122,8.355 7.929,7.995 C7.909,7.508 7.915,6.262 8.19,5.787 C8.265,4.653 8.874,3.821 10.332,3.673 L10.332,3.673 ZM26.990,12.527 L26.990,17.70 C27.959,17.721 28.869,18.433 29.692,19.203 C31.151,20.567 29.376,22.16 28.317,21.3 L26.990,19.906 L26.990,23.664 C27.959,24.315 28.869,25.27 29.692,25.797 C31.151,27.161 29.376,28.610 28.317,27.597 L26.990,26.499 L26.990,26.986 C26.990,27.454 26.828,27.834 26.556,28.127 C26.276,28.428 25.909,28.595 25.507,28.643 C25.204,28.678 24.879,28.642 24.570,28.544 C24.11,28.367 23.441,27.960 23.106,27.378 C22.393,26.135 21.770,24.754 21.237,23.572 C21.13,23.75 20.806,22.614 20.624,22.233 L16.26,25.119 C14.799,25.890 14.52,25.564 13.577,24.804 C13.255,24.290 13.260,23.682 13.265,23.229 L13.265,23.228 L13.265,23.119 L13.261,23.119 L13.261,6.335 C12.891,6.242 12.523,6.155 12.156,6.76 C10.714,5.762 10.289,5.927 10.216,6.263 C10.72,6.926 10.247,7.990 10.247,8.723 L10.243,35.126 L10.242,35.316 C10.241,36.568 10.240,36.813 12.802,37.825 C19.517,40.478 28.723,42.497 33.494,47.403 L33.494,17.620 C31.440,15.721 29.251,14.17 26.990,12.527 L26.990,12.527 ZM13.261,4.17 L13.261,2.832 C12.587,2.788 12.466,3.332 12.297,3.807 C12.406,3.827 12.516,3.849 12.631,3.874 C12.840,3.920 13.51,3.967 13.261,4.17 L13.261,4.17 ZM15.512,2.301 L15.512,22.795 L20.414,19.717 C20.911,19.386 21.586,19.503 21.940,19.991 C22.331,20.529 22.769,21.499 23.286,22.647 C23.722,23.616 24.220,24.721 24.739,25.697 L24.739,8.445 C24.739,7.731 24.732,7.124 24.639,6.714 C24.592,6.536 24.534,6.337 24.352,6.253 C22.913,5.592 16.519,2.428 15.512,2.301 L15.512,2.301 ZM61.1,10.250 L61.1,35.126 L60.997,35.126 C61.2,38.525 60.240,38.648 57.13,39.922 C52.194,41.825 41.808,44.143 38.430,47.615 C48.889,44.752 55.614,43.625 60.870,42.746 C64.439,42.146 66.750,42.886 66.750,38.302 L66.745,12.96 C66.745,10.143 62.380,10.426 61.1,10.250 L61.1,10.250 ZM35.504,17.620 L35.504,47.403 C40.275,42.497 49.481,40.478 56.195,37.825 C58.758,36.813 58.757,36.568 58.756,35.316 L58.755,35.126 L58.750,8.723 C58.750,7.990 58.926,6.926 58.781,6.263 C58.709,5.927 58.284,5.762 56.842,6.76 C53.166,6.877 49.319,8.338 45.576,10.381 C42.56,12.302 38.624,14.737 35.504,17.620 L35.504,17.620 ZM53.913,12.526 C55.380,12.526 55.484,14.668 53.757,14.824 L53.313,14.908 C49.734,15.506 44.857,17.685 42.627,19.394 L40.681,21.3 C39.622,22.16 37.848,20.567 39.306,19.203 C42.631,16.93 47.385,13.912 51.677,12.961 L53.913,12.526 L53.913,12.526 ZM53.913,25.714 C55.380,25.714 55.484,27.856 53.757,28.12 L53.313,28.96 C49.734,28.694 44.857,30.872 42.627,32.582 L40.681,34.190 C39.622,35.204 37.848,33.755 39.306,32.390 C42.631,29.280 47.385,27.100 51.677,26.149 L53.913,25.714 L53.913,25.714 ZM53.913,19.120 C55.380,19.120 55.484,21.262 53.757,21.418 L53.313,21.502 C49.734,22.100 44.857,24.278 42.627,25.987 L40.681,27.597 C39.622,28.610 37.848,27.161 39.306,25.797 C42.631,22.687 47.385,20.506 51.677,19.555 L53.913,19.120 L53.913,19.120 ZM7.996,10.250 L7.996,35.126 L8.1,35.126 C7.995,38.525 8.759,38.648 11.985,39.922 C16.804,41.825 27.190,44.143 30.568,47.615 C20.109,44.752 13.384,43.625 8.128,42.746 C4.560,42.146 2.248,42.886 2.249,38.302 L2.253,12.96 C2.253,10.143 6.617,10.426 7.996,10.250 L7.996,10.250 ZM15.85,25.714 C13.618,25.714 13.514,27.856 15.241,28.12 L15.685,28.96 C19.265,28.694 24.142,30.872 26.371,32.582 L28.317,34.190 C29.376,35.204 31.151,33.755 29.692,32.390 C26.366,29.280 21.613,27.100 17.321,26.149 L15.85,25.714 L15.85,25.714 Z"/>
</svg>