<svg xmlns="http://www.w3.org/2000/svg" width="38px" height="46px" viewBox="0 0 38 46" fill="#b9b9b9">
<path d="M23.485,30.446 C23.902,31.173 26.687,35.831 26.706,36.216 L27.676,43.184 C27.739,44.427 27.246,45.238 26.545,45.662 C25.63,46.562 23.4,45.589 22.771,43.795 L21.939,38.13 L19.287,32.840 L17.857,31.138 L16.631,38.99 C16.629,38.491 13.876,43.660 13.473,44.447 C12.909,45.551 12.81,45.991 11.267,45.991 C9.544,45.993 8.257,44.80 8.949,42.414 L11.603,37.258 L13.473,30.331 C9.212,30.282 4.951,30.234 0.690,30.185 C0.315,30.182 0.13,29.869 0.16,29.485 C0.19,29.101 0.326,28.792 0.701,28.795 L5.230,28.846 L5.378,16.94 L0.678,16.41 C0.303,16.38 0.1,15.724 0.4,15.340 C0.8,14.956 0.314,14.647 0.689,14.649 L13.758,14.799 L13.758,13.45 C13.758,11.306 15.95,9.809 16.819,9.809 C23.64,9.809 11.898,9.809 18.143,9.809 C19.800,9.809 21.100,11.192 21.198,12.844 C21.300,13.633 21.177,14.183 21.236,14.871 L37.303,15.69 C37.678,15.72 37.980,15.385 37.977,15.770 C37.974,16.154 37.667,16.463 37.292,16.460 L31.857,16.397 L31.709,29.149 L37.315,29.213 C37.690,29.217 37.991,29.530 37.989,29.914 C37.985,30.298 37.679,30.607 37.304,30.604 L23.485,30.446 L23.485,30.446 ZM19.931,31.192 C19.943,31.204 19.955,31.215 19.966,31.228 C20.12,31.285 20.42,31.319 20.76,31.386 C20.503,32.218 23.218,37.272 23.275,37.714 L24.123,43.610 C24.278,44.806 26.415,45.203 26.315,43.254 L25.354,36.458 L21.896,30.428 L19.132,30.397 L19.931,31.192 L19.931,31.192 ZM16.690,30.369 L14.795,30.347 C14.565,31.175 12.984,36.839 12.956,37.400 C12.971,37.812 10.576,42.233 10.203,42.961 C9.742,44.71 11.384,45.529 12.267,43.800 L15.270,37.924 L16.496,30.783 C16.496,30.783 16.607,30.535 16.690,30.369 L16.690,30.369 ZM17.837,16.532 L17.812,16.638 L17.100,19.826 L19.169,26.6 C19.427,26.777 20.579,26.390 20.323,25.600 L18.444,19.986 C18.395,19.855 18.386,19.708 18.426,19.564 C18.883,17.941 19.724,16.496 19.998,14.906 L19.979,13.45 C19.979,12.29 19.106,11.267 18.143,11.267 C11.898,11.267 23.64,11.267 16.819,11.267 C15.856,11.267 14.983,12.29 14.983,13.45 L14.962,28.958 L21.977,29.38 L22.125,16.285 L20.945,16.271 L19.728,19.732 L21.548,25.169 C22.338,27.680 18.748,28.837 17.943,26.435 L15.814,20.75 C15.773,19.953 15.769,19.827 15.795,19.709 L16.559,16.301 L16.577,16.223 C16.763,15.759 17.148,15.697 17.349,15.743 C17.628,15.806 17.957,16.100 17.837,16.532 L17.837,16.532 ZM15.513,8.754 C13.374,7.291 12.790,4.294 14.218,2.104 C15.647,0.86 18.574,0.685 20.713,0.777 C22.852,2.240 23.435,5.238 22.7,7.428 C20.579,9.618 17.653,10.217 15.513,8.754 L15.513,8.754 ZM16.270,7.592 C17.786,8.629 19.861,8.205 20.873,6.653 C21.885,5.101 21.472,2.975 19.956,1.939 C18.439,0.903 16.364,1.326 15.352,2.878 C14.340,4.432 14.754,6.556 16.270,7.592 L16.270,7.592 ZM6.736,16.110 L6.589,28.862 L13.604,28.942 L13.751,16.190 L6.736,16.110 L6.736,16.110 ZM30.498,16.381 L23.483,16.301 L23.335,29.53 L30.351,29.133 L30.498,16.381 L30.498,16.381 Z"/>
</svg>