<svg xmlns="http://www.w3.org/2000/svg" width="76px" height="70px" viewBox="0 0 76 70" fill="#0a6eaa">
<path d="M55.455,53.74 L68.502,45.340 C68.528,45.325 68.555,45.310 68.583,45.297 C70.472,44.335 72.536,44.540 74.144,45.953 C75.946,47.534 76.577,50.296 75.381,52.436 C74.939,53.227 74.246,53.929 73.262,54.446 L73.263,54.447 L49.400,68.372 C49.370,68.389 49.21,68.501 49.21,68.501 C47.605,68.676 44.221,68.757 40.421,68.784 C34.670,68.825 27.961,68.740 25.779,68.669 C25.335,68.655 21.424,66.947 19.197,65.972 L19.197,69.4 C19.197,69.559 18.750,70.8 18.200,70.8 L9.592,70.8 C9.41,70.8 8.594,69.559 8.594,69.4 L8.594,67.806 L0.991,67.806 C0.439,67.806 0.6,67.356 0.6,66.802 L0.6,47.30 C0.6,46.475 0.439,46.26 0.991,46.26 L8.594,46.26 L8.594,44.828 C8.594,44.273 9.41,43.823 9.592,43.823 L18.200,43.823 C18.750,43.823 19.197,44.273 19.197,44.828 L19.197,48.850 L28.153,45.455 C28.372,45.372 28.602,45.372 28.810,45.440 C29.740,45.339 32.840,45.754 33.982,45.850 C33.982,46.547 50.475,50.172 52.112,50.603 C53.89,50.813 54.29,51.316 54.720,52.47 C55.16,52.360 55.260,52.706 55.455,53.74 L55.455,53.74 ZM22.499,27.891 C18.91,27.891 14.517,24.294 14.517,19.857 C14.517,15.420 18.91,11.823 22.499,11.823 C26.908,11.823 30.482,15.420 30.482,19.857 C30.482,24.294 26.908,27.891 22.499,27.891 L22.499,27.891 ZM50.309,35.539 L47.333,38.857 L50.151,41.694 L53.486,38.665 C53.894,38.294 54.526,38.328 54.893,38.738 C55.64,38.931 55.149,39.171 55.149,39.410 L55.150,39.410 L55.150,43.757 L59.35,43.757 L59.35,39.410 C59.35,38.855 59.481,38.405 60.33,38.405 C60.308,38.405 60.559,38.519 60.739,38.701 L64.34,41.694 L66.852,38.857 L63.842,35.502 C63.473,35.90 63.507,34.456 63.916,34.85 C64.106,33.913 64.345,33.828 64.582,33.828 L64.582,33.826 L68.902,33.826 L68.902,29.918 L64.582,29.918 C64.31,29.918 63.585,29.468 63.585,28.914 C63.585,28.634 63.698,28.382 63.880,28.200 L66.852,24.887 L64.34,22.50 L60.699,25.79 C60.290,25.450 59.659,25.416 59.292,25.6 C59.120,24.813 59.36,24.573 59.36,24.335 L59.35,24.335 L59.35,19.987 L55.150,19.987 L55.150,24.335 C55.150,24.889 54.704,25.339 54.152,25.339 C53.876,25.339 53.626,25.225 53.446,25.43 L50.151,22.50 L47.333,24.887 L50.343,28.243 C50.711,28.654 50.678,29.288 50.269,29.659 C50.79,29.832 49.840,29.916 49.602,29.916 L49.602,29.918 L45.283,29.918 L45.283,33.826 L49.602,33.826 C50.153,33.826 50.600,34.276 50.600,34.830 C50.600,35.107 50.488,35.358 50.309,35.539 L50.309,35.539 ZM45.217,38.223 L47.359,35.835 L44.285,35.835 C43.734,35.835 43.287,35.386 43.287,34.830 L43.287,28.914 C43.287,28.359 43.734,27.910 44.285,27.910 L47.359,27.910 L45.251,25.560 C44.862,25.168 44.863,24.532 45.252,24.141 L49.409,19.957 L49.410,19.957 C49.783,19.582 50.386,19.563 50.781,19.922 L53.154,22.76 L53.154,18.983 C53.154,18.429 53.602,17.979 54.152,17.979 L60.33,17.979 C60.583,17.979 61.30,18.429 61.30,18.983 L61.30,22.76 L63.365,19.955 C63.755,19.565 64.386,19.565 64.775,19.957 L68.933,24.141 L68.932,24.142 C69.304,24.515 69.324,25.123 68.968,25.521 L66.826,27.910 L69.899,27.910 C70.451,27.910 70.897,28.359 70.897,28.914 L70.897,34.830 C70.897,35.386 70.451,35.835 69.899,35.835 L66.826,35.835 L68.934,38.185 C69.323,38.577 69.322,39.212 68.933,39.603 L64.775,43.788 L64.774,43.787 C64.402,44.162 63.799,44.182 63.403,43.823 L61.30,41.668 L61.30,44.761 C61.30,45.315 60.583,45.765 60.33,45.765 L54.152,45.765 C53.602,45.765 53.154,45.315 53.154,44.761 L53.154,41.668 L50.819,43.789 C50.430,44.179 49.799,44.179 49.409,43.788 L45.252,39.603 L45.253,39.603 C44.881,39.229 44.860,38.621 45.217,38.223 L45.217,38.223 ZM12.241,24.897 L7.574,30.99 L12.321,34.876 L17.529,30.146 C17.938,29.775 18.569,29.808 18.936,30.220 C19.108,30.411 19.193,30.652 19.193,30.891 L19.194,30.891 L19.194,37.720 L25.806,37.720 L25.806,30.891 C25.806,30.337 26.252,29.887 26.803,29.887 C27.79,29.887 27.330,30.0 27.510,30.183 L32.678,34.876 L37.425,30.99 L32.724,24.859 C32.355,24.448 32.388,23.813 32.797,23.442 C32.988,23.270 33.227,23.184 33.464,23.186 L33.464,23.183 L40.250,23.183 L40.250,16.530 L33.464,16.530 C32.913,16.530 32.466,16.80 32.466,15.526 C32.466,15.246 32.579,14.994 32.762,14.812 L37.425,9.614 L32.678,4.837 L27.470,9.568 C27.61,9.938 26.430,9.905 26.63,9.494 C25.891,9.301 25.807,9.62 25.807,8.823 L25.806,8.823 L25.806,1.994 L19.194,1.994 L19.194,8.823 C19.194,9.377 18.747,9.827 18.196,9.827 C17.920,9.827 17.669,9.713 17.489,9.531 L12.321,4.837 L7.574,9.614 L12.275,14.855 C12.644,15.266 12.611,15.901 12.201,16.271 C12.11,16.444 11.773,16.528 11.535,16.528 L11.535,16.530 L4.749,16.530 L4.749,23.183 L11.535,23.183 C12.86,23.183 12.533,23.633 12.533,24.188 C12.533,24.464 12.422,24.715 12.241,24.897 L12.241,24.897 ZM5.459,29.465 L9.291,25.192 L3.751,25.192 C3.200,25.192 2.753,24.743 2.753,24.188 L2.753,15.526 C2.753,14.971 3.200,14.522 3.751,14.522 L9.291,14.522 L5.493,10.287 C5.104,9.895 5.105,9.259 5.494,8.868 L11.581,2.743 L11.581,2.744 C11.953,2.369 12.557,2.349 12.953,2.708 L17.198,6.565 L17.198,0.990 C17.198,0.435 17.645,0.14 18.196,0.14 L26.803,0.14 C27.354,0.14 27.801,0.435 27.801,0.990 L27.801,6.565 L32.9,2.742 C32.398,2.351 33.30,2.351 33.419,2.743 L39.505,8.868 L39.504,8.869 C39.877,9.244 39.897,9.851 39.540,10.249 L35.708,14.522 L41.248,14.522 C41.798,14.522 42.246,14.971 42.246,15.526 L42.246,24.188 C42.246,24.743 41.798,25.192 41.248,25.192 L35.708,25.192 L39.506,29.427 C39.894,29.819 39.894,30.454 39.505,30.846 L33.419,36.970 L33.418,36.969 C33.46,37.345 32.443,37.365 32.46,37.6 L27.801,33.148 L27.801,38.724 C27.801,39.279 27.354,39.728 26.803,39.728 L18.196,39.728 C17.645,39.728 17.198,39.279 17.198,38.724 L17.198,33.148 L12.990,36.971 C12.601,37.362 11.969,37.362 11.581,36.970 L5.494,30.846 L5.495,30.845 C5.123,30.470 5.102,29.863 5.459,29.465 L5.459,29.465 ZM57.92,36.894 C54.341,36.894 52.103,34.640 52.103,31.872 C52.103,29.104 54.341,26.850 57.92,26.850 C59.843,26.850 62.82,29.104 62.82,31.872 C62.82,34.640 59.843,36.894 57.92,36.894 L57.92,36.894 ZM57.92,34.885 C58.750,34.885 60.86,33.541 60.86,31.872 C60.86,30.204 58.750,28.859 57.92,28.859 C55.435,28.859 54.99,30.204 54.99,31.872 C54.99,33.541 55.435,34.885 57.92,34.885 L57.92,34.885 ZM22.499,25.882 C25.807,25.882 28.487,23.184 28.487,19.857 C28.487,16.529 25.807,13.831 22.499,13.831 C19.193,13.831 16.513,16.529 16.513,19.857 C16.513,23.184 19.193,25.882 22.499,25.882 L22.499,25.882 ZM8.594,65.797 L8.594,48.35 L1.988,48.35 L1.988,65.797 L8.594,65.797 L8.594,65.797 ZM10.590,68.0 L17.202,68.0 L17.202,45.832 L10.590,45.832 C10.590,53.222 10.590,60.611 10.590,68.0 L10.590,68.0 ZM19.197,50.990 L19.197,63.784 L26.25,66.674 C28.373,66.744 34.850,66.822 40.414,66.784 C43.947,66.759 47.110,66.686 48.586,66.531 L72.265,52.712 L72.266,52.715 L72.312,52.690 C72.940,52.366 73.375,51.935 73.642,51.455 C74.379,50.136 73.934,48.424 72.835,47.459 C71.850,46.595 70.644,46.494 69.490,47.78 L56.37,55.51 C56.91,55.631 56.52,56.211 55.925,56.767 C55.773,57.431 55.495,58.68 55.102,58.639 C53.881,60.411 51.907,61.119 49.835,60.640 L49.835,60.638 L34.451,56.108 C33.194,55.742 33.747,53.820 35.3,54.186 L50.280,58.686 C51.558,58.981 52.708,58.600 53.465,57.501 C53.588,57.322 53.694,57.132 53.781,56.934 C53.867,56.736 53.935,56.530 53.983,56.320 C54.213,55.314 53.995,54.188 53.277,53.429 C52.902,53.30 52.376,52.722 51.684,52.561 C51.656,52.555 51.630,52.547 51.604,52.539 L33.747,47.844 L28.839,47.437 C28.274,47.391 20.770,50.385 19.197,50.990 L19.197,50.990 Z"/>
</svg>