<svg xmlns="http://www.w3.org/2000/svg" width="46px" height="43px" viewBox="0 0 46 43" fill="#b9b9b9">
<path d="M39.746,4.105 L40.496,4.105 C40.460,4.355 40.377,4.747 40.377,4.985 C40.301,6.49 41.137,6.965 42.200,6.976 L42.848,6.983 L42.848,7.630 L42.848,15.204 L41.543,15.204 L41.543,8.209 C40.211,7.916 39.211,6.782 39.82,5.416 L7.75,5.416 C6.941,6.845 5.857,8.9 4.451,8.244 L4.451,26.32 C5.869,26.267 6.954,27.445 7.77,28.886 L25.679,28.886 L25.679,28.918 C26.18,28.934 26.287,29.213 26.287,29.558 C26.287,29.902 26.18,30.183 25.679,30.197 L25.679,30.199 L25.651,30.199 L6.407,30.199 L5.649,30.199 L5.762,29.445 C5.764,29.432 5.779,29.303 5.779,29.303 C5.782,29.263 5.783,29.215 5.783,29.160 C5.783,28.133 4.956,27.302 3.934,27.302 L3.824,27.302 L3.146,27.330 L3.146,26.650 L3.146,7.626 L3.146,6.946 L3.824,6.972 C4.890,7.21 5.783,6.189 5.783,5.116 C5.783,4.800 5.706,4.423 5.661,4.105 L39.746,4.105 L39.746,4.105 ZM14.724,9.955 L31.271,9.955 C31.286,9.953 31.301,9.953 31.317,9.953 C31.332,9.953 31.347,9.953 31.362,9.955 C31.749,9.955 32.68,10.328 32.68,10.709 C32.68,11.109 31.756,11.439 31.363,11.463 L14.662,11.468 L14.662,11.463 C14.254,11.454 13.926,11.119 13.926,10.709 C13.926,10.274 14.292,9.927 14.724,9.955 L14.724,9.955 ZM29.111,18.511 C29.385,18.548 29.960,18.199 29.960,17.763 C29.960,17.352 29.648,17.33 29.255,17.9 L16.770,16.997 L16.770,17.7 C16.362,17.15 16.34,17.349 16.34,17.763 C16.34,18.177 16.371,18.518 16.786,18.518 C19.851,18.518 26.46,18.511 29.111,18.511 L29.111,18.511 ZM31.219,14.968 C31.493,15.4 32.68,14.656 32.68,14.219 C32.68,13.810 31.756,13.489 31.363,13.466 L14.662,13.453 L14.662,13.464 C14.254,13.472 13.926,13.805 13.926,14.219 C13.926,14.633 14.263,14.975 14.678,14.975 C17.743,14.975 28.154,14.968 31.219,14.968 L31.219,14.968 ZM33.777,18.642 C34.187,17.814 34.945,17.228 35.869,17.109 C36.948,16.897 38.102,17.635 38.633,18.558 C40.822,17.978 42.733,20.19 41.942,22.123 C44.25,23.145 44.133,26.96 41.984,27.85 C42.576,28.832 41.349,30.406 39.749,30.628 L39.749,32.981 L44.697,32.981 L44.697,1.321 L1.297,1.321 L1.297,32.981 L32.368,32.981 L32.368,30.628 C30.705,30.412 29.526,28.722 30.177,26.986 C29.597,26.702 29.172,26.272 28.903,25.779 C28.151,24.392 28.700,22.684 30.136,22.23 C29.376,19.800 31.583,17.823 33.777,18.642 L33.777,18.642 ZM39.749,34.292 L39.749,42.999 L36.103,38.793 L32.368,42.954 L32.368,34.292 L0.7,34.292 L0.7,0.665 L0.7,0.10 L0.644,0.10 L46.3,0.10 L46.3,34.292 L39.749,34.292 L39.749,34.292 ZM36.59,28.354 C35.9,28.354 34.58,27.927 33.369,27.235 L33.367,27.231 C32.678,26.540 32.252,25.584 32.252,24.530 C32.252,23.476 32.678,22.520 33.367,21.827 L33.369,21.825 C34.58,21.133 35.9,20.704 36.59,20.704 C37.108,20.704 38.59,21.133 38.748,21.825 L38.751,21.827 C39.439,22.520 39.866,23.476 39.866,24.530 C39.866,25.584 39.439,26.540 38.751,27.231 L38.748,27.235 C38.59,27.927 37.108,28.354 36.59,28.354 L36.59,28.354 ZM38.444,30.502 C38.412,30.492 38.381,30.481 38.350,30.469 C37.424,32.396 34.872,32.510 33.673,30.856 L33.673,39.728 L36.119,37.2 L38.444,39.683 L38.444,30.502 L38.444,30.502 ZM34.794,19.664 C34.780,19.760 34.745,19.853 34.687,19.939 C34.484,20.238 34.79,20.314 33.782,20.110 C32.913,19.515 31.636,19.700 31.334,20.794 C31.235,21.156 31.291,21.585 31.574,22.22 C31.872,22.408 31.657,22.986 31.166,23.67 C29.382,23.367 29.459,25.600 31.241,25.977 C31.283,25.986 31.326,26.0 31.366,26.17 C31.407,26.36 31.447,26.58 31.485,26.86 C31.778,26.295 31.846,26.703 31.638,26.997 C30.632,28.416 32.30,29.872 33.524,29.148 C33.882,28.955 34.332,29.136 34.454,29.531 C34.955,31.140 37.5,31.83 37.324,29.455 C37.386,28.977 37.932,28.720 38.337,28.998 C39.828,30.21 41.526,28.556 40.529,27.66 C40.502,27.28 40.477,26.985 40.459,26.940 C40.440,26.893 40.426,26.845 40.417,26.795 C40.358,26.438 40.598,26.102 40.953,26.41 C42.737,25.743 42.660,23.509 40.879,23.133 C40.424,23.38 40.207,22.500 40.481,22.113 C40.773,21.701 40.863,21.289 40.808,20.931 C40.649,19.916 39.513,19.522 38.609,19.953 C38.570,19.976 38.528,19.995 38.483,20.9 C38.140,20.119 37.773,19.927 37.665,19.581 C37.546,19.203 37.312,18.874 37.9,18.658 C36.107,18.16 35.4,18.606 34.794,19.664 L34.794,19.664 Z"/>
</svg>