<svg xmlns="http://www.w3.org/2000/svg" width="28px" height="35px" viewBox="0 0 28 35" fill="#b9b9b9">
<path d="M26.918,5.782 C27.121,8.520 27.454,12.635 27.453,12.635 C27.580,13.327 27.446,14.66 27.20,14.685 L14.232,33.244 C13.377,34.485 11.664,34.800 10.424,33.945 C7.437,31.883 4.450,29.822 1.463,27.761 C0.223,26.904 0.90,25.187 0.763,23.948 L13.551,5.388 C13.977,4.769 14.619,4.381 15.311,4.253 C15.311,4.253 19.271,3.102 21.901,2.318 L18.606,7.100 L16.542,5.676 C16.498,5.646 15.668,6.200 15.668,6.199 C15.456,6.255 15.313,6.326 15.183,6.514 L2.395,25.74 C2.159,25.417 2.245,25.890 2.588,26.126 C5.575,28.188 8.562,30.250 11.549,32.311 C11.893,32.548 12.364,32.461 12.600,32.119 L25.388,13.558 C25.517,13.370 25.533,13.211 25.510,12.993 L25.687,11.988 L23.623,10.564 L26.918,5.782 L26.918,5.782 ZM8.49,20.31 C8.533,19.328 9.19,18.944 9.507,18.878 C9.995,18.812 10.641,19.56 11.445,19.611 C12.250,20.167 12.709,20.685 12.820,21.165 C12.932,21.645 12.747,22.237 12.262,22.940 C11.782,23.636 11.300,24.15 10.814,24.78 C10.328,24.140 9.683,23.894 8.878,23.339 C8.74,22.783 7.614,22.267 7.500,21.790 C7.386,21.314 7.568,20.727 8.49,20.31 L8.49,20.31 ZM16.166,23.670 L15.276,24.960 L10.900,16.199 L11.789,14.909 L16.166,23.670 L16.166,23.670 ZM9.163,20.800 C9.74,20.931 9.69,21.46 9.151,21.147 C9.232,21.248 9.501,21.457 9.958,21.772 C10.421,22.92 10.713,22.271 10.833,22.309 C10.953,22.346 11.58,22.299 11.147,22.170 C11.241,22.34 11.249,21.913 11.170,21.808 C11.91,21.704 10.824,21.493 10.366,21.178 C9.910,20.863 9.618,20.687 9.493,20.651 C9.367,20.614 9.257,20.664 9.163,20.800 L9.163,20.800 ZM14.803,16.929 C15.287,16.227 15.773,15.842 16.261,15.777 C16.750,15.711 17.396,15.955 18.200,16.510 C19.5,17.66 19.463,17.584 19.575,18.64 C19.687,18.543 19.501,19.135 19.16,19.838 C18.537,20.534 18.55,20.914 17.569,20.976 C17.83,21.39 16.438,20.792 15.634,20.236 C14.828,19.681 14.370,19.166 14.255,18.689 C14.141,18.212 14.324,17.625 14.803,16.929 L14.803,16.929 ZM15.918,17.699 C15.828,17.829 15.822,17.943 15.901,18.42 C15.978,18.141 16.249,18.351 16.712,18.670 C17.169,18.986 17.459,19.164 17.583,19.203 C17.706,19.244 17.812,19.198 17.902,19.68 C17.996,18.932 18.4,18.812 17.925,18.707 C17.846,18.602 17.579,18.392 17.121,18.76 C16.665,17.761 16.373,17.586 16.248,17.549 C16.121,17.513 16.12,17.563 15.918,17.699 L15.918,17.699 ZM26.995,0.297 L26.995,0.297 C27.738,0.809 27.927,1.837 27.415,2.581 L23.939,7.625 C23.427,8.369 22.400,8.558 21.657,8.45 L21.657,8.45 C20.914,7.532 20.726,6.504 21.238,5.761 L24.714,0.716 C25.226,0.27 26.253,0.215 26.995,0.297 L26.995,0.297 Z"/>
</svg>
