<svg xmlns="http://www.w3.org/2000/svg" width="85px" height="67px" viewBox="0 0 85 67" fill="#0a6eaa">
<path d="M20.856,30.714 L30.44,30.714 C30.705,30.714 31.245,31.248 31.245,31.902 C31.245,32.556 30.705,33.91 30.44,33.91 L20.856,33.91 C20.196,33.91 19.655,32.556 19.655,31.902 C19.655,31.248 20.196,30.714 20.856,30.714 ZM20.856,20.65 L37.366,20.65 C38.27,20.65 38.568,20.599 38.568,21.254 C38.568,21.907 38.27,22.442 37.366,22.442 L20.856,22.442 C20.196,22.442 19.655,21.907 19.655,21.254 C19.655,20.599 20.196,20.65 20.856,20.65 ZM46.96,13.353 L20.856,13.353 C20.196,13.353 19.655,12.820 19.655,12.165 C19.655,11.512 20.196,10.977 20.856,10.977 L46.96,10.977 C46.757,10.977 47.298,11.512 47.298,12.165 C47.298,12.820 46.757,13.353 46.96,13.353 ZM46.96,17.689 L20.856,17.689 C20.196,17.689 19.655,17.154 19.655,16.500 C19.655,15.846 20.196,15.312 20.856,15.312 L46.96,15.312 C46.757,15.312 47.298,15.846 47.298,16.500 C47.298,17.154 46.757,17.689 46.96,17.689 ZM84.249,43.511 L84.207,43.569 C82.262,46.411 78.564,44.944 75.799,44.395 L74.750,44.186 L69.629,43.168 C69.641,44.347 69.843,45.477 70.562,46.978 L71.231,46.525 C72.791,45.468 74.937,45.864 76.5,47.406 L80.503,53.897 C80.878,54.437 80.737,55.177 80.190,55.548 C79.643,55.919 78.895,55.781 78.519,55.239 L74.22,48.749 C73.703,48.289 73.57,48.169 72.591,48.485 L59.483,57.364 C59.18,57.679 58.897,58.319 59.215,58.780 L63.611,65.122 C63.986,65.663 63.846,66.403 63.298,66.774 C62.751,67.145 62.2,67.7 61.628,66.465 L57.233,60.123 C56.163,58.580 56.565,56.459 58.125,55.403 L58.538,55.123 C58.478,55.70 58.424,55.10 58.375,54.943 C57.942,54.361 57.395,53.810 56.787,53.280 L43.785,53.280 L43.785,60.55 L46.859,60.55 C48.449,60.55 48.449,62.432 46.859,62.432 L42.583,62.432 L25.818,62.432 L20.94,62.432 C18.504,62.432 18.504,60.55 20.94,60.55 L24.615,60.55 L24.615,53.280 L4.966,53.280 C3.621,53.280 2.399,52.736 1.514,51.863 C0.629,50.988 0.80,49.780 0.80,48.450 L0.80,15.808 C0.80,14.477 0.629,13.270 1.514,12.395 C2.399,11.520 3.621,10.977 4.966,10.977 L11.371,10.977 C12.35,10.977 12.573,11.509 12.573,12.165 C12.573,12.822 12.35,13.353 11.371,13.353 L4.966,13.353 C4.284,13.353 3.664,13.631 3.214,14.75 C2.764,14.520 2.484,15.134 2.484,15.808 L2.484,48.450 C2.484,49.123 2.764,49.737 3.214,50.182 C3.664,50.627 4.284,50.904 4.966,50.904 L53.516,50.904 C52.933,50.533 52.346,50.172 51.775,49.822 C49.918,48.685 48.221,47.640 47.150,46.507 L5.443,46.507 C4.779,46.507 4.241,45.976 4.241,45.319 L4.241,19.185 C4.241,18.138 4.675,17.186 5.372,16.496 L5.376,16.491 L5.389,16.480 L5.395,16.474 C6.91,15.795 7.47,15.372 8.96,15.372 L11.326,15.372 C11.990,15.372 12.528,15.905 12.528,16.560 C12.528,17.218 11.990,17.749 11.326,17.749 L8.96,17.749 C7.697,17.749 7.334,17.910 7.71,18.167 L7.67,18.172 C6.806,18.431 6.645,18.790 6.645,19.185 L6.645,44.131 L14.411,44.131 L14.411,4.754 C14.411,3.545 14.912,2.443 15.721,1.643 L15.723,1.640 L15.725,1.638 L15.727,1.637 C16.537,0.838 17.650,0.344 18.872,0.344 L48.81,0.344 C49.309,0.344 50.424,0.840 51.233,1.638 C51.257,1.664 51.281,1.689 51.303,1.716 C52.70,2.509 52.541,3.581 52.541,4.754 L52.541,10.977 L61.987,10.977 C63.329,10.977 64.550,11.521 65.435,12.395 L65.436,12.397 L65.438,12.395 C66.323,13.270 66.872,14.477 66.872,15.808 L66.872,25.585 C66.872,26.241 66.335,26.773 65.670,26.773 C65.7,26.773 64.469,26.241 64.469,25.585 L64.469,15.808 C64.469,15.135 64.189,14.520 63.739,14.75 L63.741,14.73 C63.291,13.628 62.670,13.353 61.987,13.353 L52.541,13.353 L52.541,15.372 L58.857,15.372 C59.918,15.372 60.882,15.802 61.580,16.492 C62.278,17.181 62.713,18.135 62.713,19.185 L62.713,23.104 L62.712,23.104 L62.713,23.139 C62.713,23.796 62.174,24.327 61.511,24.327 C60.847,24.327 60.309,23.796 60.309,23.139 L60.308,23.139 L60.308,19.185 C60.308,18.791 60.145,18.432 59.881,18.172 C59.618,17.911 59.255,17.749 58.857,17.749 L52.541,17.749 L52.541,21.57 C52.541,21.714 52.4,22.246 51.339,22.246 C50.676,22.246 50.137,21.714 50.137,21.57 L50.137,9.146 L16.815,9.146 L16.815,44.131 L45.411,44.131 L43.643,41.579 C42.758,40.301 42.614,39.3 42.945,37.864 L41.400,37.557 C41.254,37.528 41.120,37.474 41.0,37.400 L32.248,33.54 C31.199,32.535 31.466,30.993 32.610,30.826 L42.653,29.367 C42.722,29.358 42.790,29.353 42.857,29.355 C41.730,28.908 41.36,28.14 40.740,26.994 C40.593,26.488 40.549,25.957 40.601,25.444 C40.653,24.928 40.803,24.418 41.44,23.957 C41.695,22.710 42.978,21.808 44.801,21.988 L57.249,23.211 C57.453,23.232 57.640,23.303 57.800,23.407 L67.809,30.55 C68.260,30.353 68.742,31.294 69.123,32.307 C69.477,33.247 69.692,34.2 69.815,34.690 L81.633,37.38 C83.591,37.428 84.633,38.761 84.910,40.257 C85.119,41.380 84.879,42.555 84.249,43.511 ZM41.382,53.280 L27.20,53.280 L27.20,60.55 L41.382,60.55 L41.382,53.280 ZM50.137,6.768 L50.137,4.754 C50.137,4.217 49.926,3.728 49.583,3.366 L49.533,3.318 C49.160,2.949 48.646,2.721 48.81,2.721 L18.872,2.721 C18.305,2.721 17.790,2.948 17.420,3.314 L17.416,3.318 C17.45,3.685 16.815,4.193 16.815,4.754 L16.815,6.768 L50.137,6.768 ZM45.626,40.235 L48.588,44.509 C49.274,45.499 51.61,46.593 53.40,47.806 C55.642,49.399 58.548,51.179 60.308,53.544 C60.372,53.631 60.423,53.725 60.459,53.821 L68.572,48.326 C68.338,47.863 67.955,47.52 67.676,46.295 C67.432,45.630 67.249,44.958 67.256,44.454 C67.263,43.927 67.278,43.332 67.298,42.705 L60.769,41.406 C60.742,41.465 60.711,41.513 60.678,41.546 C59.934,42.246 58.220,44.680 56.896,44.127 L52.679,42.379 C52.444,42.299 52.231,42.146 52.80,41.927 L49.221,37.801 C48.632,36.952 47.811,36.721 47.78,36.881 C46.775,36.948 46.477,37.80 46.207,37.262 C46.48,37.370 45.903,37.492 45.776,37.627 C45.717,37.722 45.646,37.808 45.565,37.882 L45.533,37.927 C45.116,38.546 45.38,39.386 45.626,40.235 ZM57.946,40.846 L53.653,39.993 L53.866,40.299 L57.103,41.641 L57.946,40.846 ZM66.878,33.141 C66.642,32.515 66.487,32.27 66.472,32.17 L56.713,25.537 L44.565,24.341 C43.883,24.274 43.410,24.597 43.176,25.46 C43.74,25.241 43.10,25.460 42.987,25.684 C42.964,25.910 42.981,26.134 43.39,26.336 C43.177,26.811 43.575,27.210 44.268,27.278 C45.581,27.407 46.801,27.475 47.901,27.536 C51.986,27.763 54.514,27.904 58.787,30.994 L58.786,30.994 C59.19,31.162 59.193,31.415 59.254,31.717 L59.438,32.628 L67.229,34.176 C67.136,33.860 67.20,33.519 66.878,33.141 ZM44.662,29.691 L55.881,31.921 C53.3,30.194 50.896,30.76 47.764,29.902 C46.848,29.851 45.847,29.795 44.662,29.691 ZM73.954,38.969 C73.843,38.368 73.400,37.826 72.558,37.660 L67.341,36.622 L42.781,31.741 L36.713,32.622 L42.13,35.255 L44.322,35.713 C44.489,35.564 44.664,35.427 44.848,35.302 C45.358,34.957 45.941,34.703 46.555,34.568 C48.182,34.210 49.972,34.681 51.203,36.457 L51.719,37.201 C51.785,37.203 51.854,37.210 51.922,37.224 L66.625,40.146 L71.842,41.183 C73.263,41.466 74.190,40.244 73.954,38.969 ZM76.991,38.541 L76.279,38.400 L76.310,38.548 C76.518,39.671 76.279,40.846 75.648,41.802 L75.607,41.860 L75.562,41.922 L76.274,42.64 C78.614,42.529 79.317,39.3 76.991,38.541 ZM81.159,39.369 L80.711,39.280 L80.742,39.429 C80.950,40.551 80.711,41.726 80.80,42.683 L80.39,42.742 L79.996,42.804 L80.442,42.893 C81.263,43.56 81.872,42.746 82.216,42.256 L82.242,42.212 C82.953,41.137 82.585,39.653 81.159,39.369 ZM20.856,3.690 C21.520,3.690 22.59,4.221 22.59,4.878 C22.59,5.534 21.520,6.66 20.856,6.66 C20.193,6.66 19.655,5.534 19.655,4.878 C19.655,4.221 20.193,3.690 20.856,3.690 ZM25.665,3.690 C26.328,3.690 26.866,4.221 26.866,4.878 C26.866,5.534 26.328,6.66 25.665,6.66 C25.1,6.66 24.463,5.534 24.463,4.878 C24.463,4.221 25.1,3.690 25.665,3.690 ZM30.472,3.690 C31.136,3.690 31.675,4.221 31.675,4.878 C31.675,5.534 31.136,6.66 30.472,6.66 C29.809,6.66 29.270,5.534 29.270,4.878 C29.270,4.221 29.809,3.690 30.472,3.690 ZM75.709,54.87 C76.359,54.217 76.781,54.843 76.650,55.486 C76.519,56.130 75.886,56.547 75.235,56.417 C74.584,56.288 74.162,55.662 74.294,55.18 C74.424,54.375 75.58,53.958 75.709,54.87 Z"/>
</svg>